<svg width="0" height="0" class="hidden">
    <symbol id="nav-home" xmlns="http://www.w3.org/2000/svg"  viewBox="0 0 22 19" fill="none">
        <path d="M10.7483 0.04669C10.6199 0.0812826 10.1751 0.41238 9.73527 0.797838C9.66609 0.85714 8.66785 1.69724 7.51148 2.66088C6.35511 3.62453 5.35687 4.45968 5.28769 4.51899C5.08507 4.69689 3.98306 5.61606 3.31098 6.16954C2.96506 6.45616 2.15461 7.13318 1.50724 7.67677C0.864809 8.22037 0.306389 8.68983 0.271797 8.71454C0.128486 8.8282 0 9.11977 0 9.32238C0 9.62877 0.108719 9.84621 0.355807 10.0241C0.548536 10.1674 0.593012 10.1773 0.874692 10.1625C1.13661 10.1477 1.20579 10.118 1.42323 9.94998C1.64561 9.76714 4.64032 7.26661 6.1179 6.02128C6.45889 5.73466 6.88388 5.37885 7.06672 5.2306C7.48183 4.88962 10.3431 2.4978 10.3777 2.46321C10.4617 2.37426 10.9658 1.96904 10.9905 1.96904C11.0103 1.96904 11.5637 2.41874 12.221 2.97221C13.5058 4.04952 15.2849 5.53699 17.6915 7.54829C18.5217 8.24013 19.5397 9.09506 19.9548 9.44592C20.37 9.79185 20.7653 10.0982 20.8345 10.1229C20.9037 10.1526 21.0667 10.1724 21.1952 10.1724C21.8031 10.1724 22.2132 9.42616 21.8821 8.93692C21.7784 8.78373 21.4769 8.50699 20.8295 7.9634C20.6912 7.85468 19.6732 6.99975 18.5563 6.06576C17.4444 5.13671 16.1546 4.0594 15.6901 3.67394C15.2305 3.28849 14.0741 2.32484 13.1253 1.53416C11.2376 -0.0472031 11.1832 -0.0817957 10.7483 0.04669Z" fill="currentColor"/>
        <path d="M10.7185 3.39232C10.6196 3.46151 8.56879 5.16147 8.10426 5.56176C7.9906 5.66059 7.04178 6.44633 4.43747 8.61577C3.79504 9.14948 3.33546 9.56953 3.29098 9.66342C3.2218 9.79685 3.21191 10.3108 3.21191 13.9726V18.1287H3.75551H4.2991V14.1604V10.1922L4.48195 10.0192C4.58572 9.92039 5.27263 9.34221 6.00401 8.73437C6.74033 8.12653 7.34817 7.61753 7.363 7.6027C7.37782 7.58788 7.72374 7.30126 8.12897 6.96027C8.53914 6.61929 9.3397 5.94721 9.91789 5.46292C10.4911 4.98357 10.9754 4.58823 10.9952 4.58823C11.01 4.58823 11.5437 5.01816 12.1713 5.54693C14.4445 7.44457 15.2945 8.15618 15.4181 8.25996C15.4873 8.31926 16.0358 8.77884 16.6387 9.2829L17.7407 10.1971V14.1604V18.1287H18.2843H18.8279V13.9628C18.8279 10.0884 18.8229 9.79191 18.7389 9.66836C18.6945 9.59424 18.1558 9.11983 17.543 8.60588C16.9303 8.09688 15.8974 7.23207 15.2451 6.68848C14.5928 6.13994 13.5699 5.28502 12.9719 4.7859C12.3739 4.28678 11.7859 3.7926 11.6623 3.68388C11.2176 3.29349 10.9754 3.21442 10.7185 3.39232Z" fill="currentColor"/>
        <path d="M10.7728 8.7886V9.08511H10.5257C10.3182 9.08511 10.2687 9.10488 10.1996 9.20865C10.1304 9.31243 10.1254 9.36185 10.1699 9.46068L10.2292 9.58423L10.9556 9.5694L11.687 9.55458L11.7315 9.42115C11.8056 9.2136 11.6623 9.08511 11.3559 9.08511H11.1187V8.7886V8.4921H10.9458H10.7728V8.7886Z" fill="currentColor"/>
        <path d="M8.30726 9.76214C8.1936 9.78685 8.1936 9.78685 8.34185 9.8758C8.56423 10.0142 8.67295 10.2069 8.67789 10.4886C8.68778 10.706 8.7026 10.7357 8.80144 10.7406C8.98922 10.7554 9.093 10.9383 9.093 11.2644V11.556H9.38951C9.71072 11.556 9.88368 11.6598 9.88368 11.8525C9.88368 12.0452 9.71072 12.149 9.38951 12.149H9.093V12.4356C9.093 12.7569 8.97934 12.9397 8.77673 12.9397C8.59388 12.9397 8.50493 12.7964 8.4901 12.4702L8.47528 12.1737L8.2529 12.1589C7.91192 12.1391 7.81802 12.1095 7.73401 11.981C7.66977 11.8871 7.66483 11.8426 7.71425 11.7339C7.78343 11.5906 7.85756 11.5659 8.22819 11.5461L8.47528 11.5313L8.4901 11.3435C8.50987 11.131 8.47528 11.1162 8.30726 11.2743C8.23313 11.3386 7.98604 11.4671 7.74884 11.5609L7.31396 11.729V12.574V13.4141L7.45728 13.5228C8.18866 14.0615 9.12265 14.1208 9.86392 13.676C10.2938 13.419 10.6348 12.9941 10.788 12.5295C10.8078 12.4851 10.8671 12.4455 10.9313 12.4455C11.0203 12.4455 11.0746 12.5098 11.1883 12.7519C11.3662 13.1225 11.7912 13.5673 12.1371 13.7452C12.8833 14.1208 13.7877 14.0269 14.4449 13.5031L14.5784 13.3943V12.5493C14.5784 12.0699 14.5586 11.7043 14.5339 11.7043C14.5092 11.7043 14.4548 11.6894 14.4103 11.6746C14.3461 11.6499 14.3313 11.6795 14.3313 11.8179C14.3313 12.2034 13.9013 12.401 13.6493 12.1342C13.4912 11.9662 13.5011 11.645 13.6592 11.5165L13.7827 11.4226L13.6493 11.3237L13.5109 11.22L13.3676 11.3435C13.2589 11.4374 13.1947 11.4572 13.0761 11.4374C12.6115 11.3435 12.5621 10.7456 13.0118 10.627C13.1502 10.5924 13.1749 10.5578 13.2045 10.37C13.2441 10.1427 13.4269 9.90545 13.6098 9.84121C13.7086 9.81156 13.7086 9.80662 13.59 9.77203C13.4566 9.73743 8.50493 9.72755 8.30726 9.76214ZM12.5473 11.5362C12.6659 11.6351 12.7005 11.7043 12.7005 11.8476C12.7005 12.3022 12.0828 12.4208 11.9098 12.0008C11.8307 11.813 11.9147 11.5857 12.1025 11.4819C12.2903 11.383 12.3793 11.3929 12.5473 11.5362ZM13.3973 12.3912C13.4813 12.4801 13.5406 12.5888 13.5406 12.6679C13.5406 12.826 13.2984 13.0879 13.1452 13.0879C13.0019 13.0879 12.7697 12.9595 12.7301 12.8656C12.6659 12.6926 12.7005 12.49 12.824 12.3714C12.9921 12.1984 13.2095 12.2083 13.3973 12.3912Z" fill="currentColor"/>
        <path d="M13.8616 10.1082C13.4909 10.1972 13.4563 10.6913 13.8023 11.0027C13.8665 11.0669 14.1334 11.1954 14.3854 11.2942C14.6424 11.3881 14.8796 11.487 14.9142 11.5166C14.9586 11.5562 14.9735 11.823 14.9735 12.5494V13.5329L14.7165 13.7355C14.3063 14.0616 13.8912 14.2296 13.402 14.2642L12.9819 14.2988L13.3872 14.6942C13.7924 15.0846 13.9604 15.1834 14.1581 15.134C14.2717 15.1043 15.9618 13.4241 16.0557 13.2462C16.1051 13.1573 16.1101 12.8855 16.0854 12.1343C16.0359 10.7803 16.1101 10.8791 14.8005 10.38C14.0741 10.0983 13.9999 10.0786 13.8616 10.1082Z" fill="currentColor"/>
        <path d="M7.14111 10.3949C6.16264 10.7952 6.13793 10.81 6.0391 10.978C5.95509 11.1164 5.94026 11.2745 5.91061 12.1344C5.8859 12.8262 5.89084 13.1672 5.93038 13.2364C5.96003 13.2907 6.38502 13.7355 6.87425 14.2247C7.73412 15.0846 7.76871 15.1143 7.96638 15.1143C8.14923 15.1143 8.19865 15.0797 8.55445 14.7337C8.77189 14.5262 8.94485 14.3433 8.94485 14.3236C8.94485 14.3088 8.83119 14.289 8.69777 14.284C8.15417 14.2593 7.59081 14.037 7.21524 13.696L7.01757 13.5181L7.02745 12.5099L7.04227 11.4969L7.53645 11.314C8.17394 11.0719 8.40126 10.8693 8.40126 10.5431C8.40126 10.0391 8.09487 10.0045 7.14111 10.3949Z" fill="currentColor"/>
        <path d="M5.37647 13.513C5.21339 13.597 5.08984 13.8194 5.08984 14.0121C5.08984 14.1307 5.24798 14.3136 6.0189 15.0796C6.53284 15.5886 6.98748 16.0037 7.03196 16.0037C7.08137 16.0037 7.20492 15.9592 7.3087 15.9098C7.51131 15.806 7.68921 15.4897 7.63979 15.3266C7.62497 15.2772 7.20492 14.8275 6.7058 14.3333C5.73227 13.3648 5.6878 13.3401 5.37647 13.513Z" fill="currentColor"/>
        <path d="M15.2847 14.3333C14.7856 14.8325 14.3655 15.2871 14.3507 15.3415C14.3062 15.5095 14.499 15.8307 14.6966 15.9246C14.7856 15.9691 14.9042 16.0037 14.9536 16.0037C15.003 16.0037 15.4577 15.5886 15.9716 15.0796C16.7722 14.2839 16.9006 14.1307 16.9006 14.0022C16.9006 13.7107 16.6289 13.4389 16.3373 13.4339C16.2137 13.4339 16.0507 13.5723 15.2847 14.3333Z" fill="currentColor"/>
    </symbol>
    <symbol id="nav-mod" xmlns="http://www.w3.org/2000/svg"  viewBox="0 0 18 18" fill="none">
        <path d="M7.56656 0.166437C7.42363 0.309361 7.39841 0.452284 7.39841 1.02398C7.39 2.10011 7.16301 2.57092 6.51565 2.86518C5.82625 3.18465 5.31341 3.01651 4.53993 2.23463C4.1532 1.83949 4.0355 1.76382 3.78328 1.76382C3.51425 1.76382 3.39654 1.8563 2.62307 2.62977C1.85801 3.39483 1.76553 3.52094 1.76553 3.78998C1.76553 4.03379 1.8412 4.1599 2.23634 4.53823C3.01822 5.3117 3.18636 5.82454 2.86688 6.51394C2.57263 7.1613 2.10182 7.3883 1.02569 7.3967C0.00840729 7.3967 0 7.40511 0 8.99409C0 10.5831 0.00840729 10.5915 1.0341 10.5915C2.10182 10.5999 2.57263 10.8269 2.86688 11.4742C3.18636 12.1636 3.04344 12.6092 2.24475 13.4247C1.5049 14.1814 1.52172 14.2486 2.61467 15.35C3.72443 16.4598 3.80009 16.4766 4.62401 15.6863C5.43111 14.9044 6.04484 14.7783 6.73424 15.2407C7.20504 15.5602 7.33956 15.8881 7.39 16.8717C7.43204 17.6116 7.46567 17.7713 7.60019 17.8722C7.83559 18.0403 10.156 18.0403 10.3914 17.8722C10.5259 17.7713 10.5596 17.6116 10.6016 16.8717C10.652 15.8881 10.7865 15.5602 11.2574 15.2407C11.9468 14.7783 12.5605 14.9044 13.3676 15.6863C14.1915 16.4766 14.2756 16.4682 15.3685 15.35C16.4615 14.2402 16.4699 14.1898 15.646 13.3154C15.0238 12.6681 14.8977 12.3738 14.9986 11.8189C15.0743 11.4322 15.3685 11.0118 15.7132 10.8101C15.9234 10.684 16.2177 10.6335 16.8734 10.5999C17.6133 10.5578 17.773 10.5242 17.8739 10.3897C18.042 10.1543 18.042 7.83388 17.8739 7.59848C17.773 7.46396 17.6133 7.43033 16.8734 7.3883C16.2177 7.35467 15.9234 7.30422 15.7132 7.17811C15.3685 6.97634 15.0743 6.55597 14.9986 6.16924C14.8977 5.62277 15.0238 5.33692 15.6376 4.66434C16.4699 3.77316 16.4615 3.73113 15.3601 2.62977C14.2756 1.54523 14.1915 1.52842 13.4264 2.25985C12.5941 3.05014 12.1653 3.18465 11.4759 2.86518C10.8286 2.57092 10.6016 2.10011 10.5932 1.02398C10.5932 0.00669861 10.5848 -0.00170898 8.9958 -0.00170898C7.844 -0.00170898 7.71789 0.0151062 7.56656 0.166437ZM10.0467 4.91655C10.7865 5.10992 11.4507 5.50506 12.0056 6.08517C13.6114 7.74981 13.6114 10.2384 12.0056 11.903C10.383 13.6013 7.79355 13.6433 6.08688 12.0039C4.35497 10.3393 4.35497 7.64892 6.08688 5.98428C7.16301 4.95018 8.63428 4.55504 10.0467 4.91655Z" fill="currentColor"/>
        <path d="M8.28494 6.49176C7.49428 6.75251 6.95596 7.23195 6.62793 7.93849C6.35877 8.52727 6.36718 9.45251 6.62793 10.0497C6.87185 10.588 7.40176 11.1095 7.94849 11.3619C8.53727 11.631 9.46251 11.631 10.0513 11.3619C11.0102 10.9245 11.5569 10.0665 11.5569 8.98989C11.5569 7.91325 11.0018 7.0469 10.0597 6.62634C9.54662 6.40765 8.73914 6.34036 8.28494 6.49176Z" fill="currentColor"/>
    </symbol>
    <symbol id="nav-addon" xmlns="http://www.w3.org/2000/svg"  viewBox="0 0 18 18" fill="none">
        <path d="M13.53 0.178291C13.5075 0.275791 13.4925 0.418291 13.5 0.493291C13.53 0.778291 13.5 0.898291 13.35 1.04829C13.1175 1.28079 12.795 1.24329 12.4575 0.935791C12.3 0.793291 12.12 0.673291 12.06 0.673291C11.9325 0.673291 11.175 1.43079 11.175 1.56579C11.175 1.62579 11.295 1.79829 11.4375 1.95579C11.9325 2.50329 11.685 3.07329 10.995 2.99829C10.92 2.99079 10.7775 3.00579 10.68 3.02829C10.5075 3.07329 10.5 3.10329 10.5 3.74829C10.5 4.39329 10.5075 4.42329 10.68 4.46829C10.7775 4.49079 10.92 4.50579 10.995 4.49829C11.28 4.46829 11.4 4.49829 11.55 4.64829C11.7825 4.88079 11.745 5.20329 11.4375 5.54079C11.295 5.69829 11.175 5.87829 11.175 5.93829C11.175 6.06579 11.9325 6.82329 12.0675 6.82329C12.1275 6.82329 12.3 6.70329 12.4575 6.56079C13.005 6.06579 13.575 6.31329 13.5 7.00329C13.4925 7.07829 13.5075 7.22079 13.53 7.31829C13.575 7.49079 13.605 7.49829 14.25 7.49829C14.895 7.49829 14.925 7.49079 14.97 7.31829C14.9925 7.22079 15.0075 7.07829 15 7.00329C14.97 6.71829 15 6.59829 15.15 6.44829C15.3825 6.21579 15.705 6.25329 16.0425 6.56079C16.2 6.70329 16.38 6.82329 16.44 6.82329C16.5675 6.82329 17.325 6.06579 17.325 5.93079C17.325 5.87079 17.205 5.69829 17.0625 5.54079C16.5675 4.99329 16.815 4.42329 17.505 4.49829C17.58 4.50579 17.7225 4.49079 17.82 4.46829C17.9925 4.42329 18 4.39329 18 3.74829C18 3.10329 17.9925 3.07329 17.82 3.02829C17.7225 3.00579 17.58 2.99079 17.505 2.99829C17.22 3.02829 17.1 2.99829 16.95 2.84829C16.7175 2.61579 16.755 2.29329 17.0625 1.95579C17.205 1.79829 17.325 1.61829 17.325 1.55829C17.325 1.43079 16.5675 0.673291 16.4325 0.673291C16.3725 0.673291 16.2 0.793291 16.0425 0.935791C15.495 1.43079 14.925 1.18329 15 0.493291C15.0075 0.418291 14.9925 0.275791 14.97 0.178291C14.925 0.00579071 14.895 -0.00170946 14.25 -0.00170946C13.605 -0.00170946 13.575 0.00579071 13.53 0.178291ZM14.775 2.14329C15.6 2.39079 16.095 3.23829 15.9075 4.09329C15.7425 4.82079 15.3225 5.24079 14.595 5.40579C13.74 5.59329 12.8925 5.09829 12.645 4.27329C12.495 3.77829 12.495 3.71829 12.645 3.23079C12.8025 2.70579 13.14 2.34579 13.65 2.17329C14.16 1.99329 14.2725 1.99329 14.775 2.14329Z" fill="currentColor"/>
        <path d="M13.7325 2.75083C13.3725 2.93833 13.185 3.22333 13.1475 3.65083C13.0875 4.31083 13.4925 4.79083 14.1525 4.85083C14.8125 4.91083 15.2925 4.50583 15.3525 3.84583C15.39 3.42583 15.225 3.05833 14.91 2.82583C14.625 2.61583 14.055 2.57833 13.7325 2.75083Z" fill="currentColor"/>
        <path d="M4.665 3.46329C4.6275 3.51579 4.575 3.82329 4.56 4.14579C4.515 4.81329 4.3725 5.03829 3.9 5.18079C3.555 5.28579 3.285 5.15829 2.88 4.72329C2.4675 4.27329 2.3175 4.31079 1.6275 5.00079C0.9375 5.69079 0.9 5.84079 1.35 6.25329C1.785 6.65829 1.9125 6.92829 1.8075 7.27329C1.665 7.74579 1.44 7.88829 0.7725 7.93329C0.45 7.94829 0.1425 8.00079 0.0975 8.03829C0.03 8.09079 0 8.38329 0 8.99829C0 9.61329 0.03 9.90579 0.0975 9.95829C0.1425 9.99579 0.45 10.0483 0.7725 10.0633C1.44 10.1083 1.665 10.2508 1.8075 10.7233C1.9125 11.0683 1.785 11.3383 1.35 11.7433C0.9 12.1558 0.9375 12.3058 1.6275 12.9958C2.3175 13.6858 2.4675 13.7233 2.88 13.2733C3.285 12.8383 3.555 12.7108 3.9 12.8158C4.3725 12.9583 4.515 13.1833 4.56 13.8508C4.575 14.1733 4.6275 14.4808 4.665 14.5258C4.7175 14.5933 5.01 14.6233 5.625 14.6233C6.24 14.6233 6.5325 14.5933 6.585 14.5258C6.6225 14.4808 6.675 14.1733 6.69 13.8508C6.735 13.1833 6.8775 12.9583 7.35 12.8158C7.6875 12.7108 7.9125 12.8158 8.3775 13.2658C8.565 13.4533 8.76 13.5733 8.865 13.5733C9.105 13.5733 10.2 12.4783 10.2 12.2383C10.2 12.1333 10.0575 11.9158 9.825 11.6758C9.405 11.2408 9.3225 10.9933 9.4725 10.6408C9.6525 10.2058 9.8325 10.1083 10.4775 10.0633C10.8 10.0483 11.1075 9.99579 11.16 9.95829C11.2875 9.85329 11.2875 8.14329 11.16 8.03829C11.1075 8.00079 10.8 7.94829 10.4775 7.93329C9.8325 7.88829 9.6525 7.79079 9.4725 7.35579C9.3225 7.00329 9.405 6.75579 9.825 6.32079C10.0575 6.08079 10.2 5.86329 10.2 5.75829C10.2 5.51829 9.105 4.42329 8.8575 4.42329C8.76 4.42329 8.5575 4.55079 8.3775 4.73079C7.9125 5.18079 7.6875 5.28579 7.35 5.18079C6.8775 5.03829 6.735 4.81329 6.69 4.14579C6.675 3.82329 6.6225 3.51579 6.585 3.46329C6.5325 3.40329 6.24 3.37329 5.625 3.37329C5.01 3.37329 4.7175 3.40329 4.665 3.46329ZM6.735 6.69579C7.0125 6.83079 7.23 6.98079 7.2225 7.03329C7.2075 7.08579 7.245 7.11579 7.2975 7.10079C7.3425 7.09329 7.38 7.13079 7.3725 7.17579C7.3575 7.22829 7.395 7.26579 7.4475 7.25079C7.4925 7.24329 7.53 7.28079 7.5225 7.32579C7.5075 7.37829 7.5375 7.41579 7.59 7.40079C7.6425 7.39329 7.7925 7.61079 7.935 7.89579C8.16 8.34579 8.19 8.46579 8.19 8.99829C8.19 9.53079 8.16 9.65079 7.935 10.1008C7.7925 10.3858 7.6425 10.6033 7.59 10.5883C7.5375 10.5808 7.5075 10.6183 7.515 10.6633C7.53 10.7158 7.4925 10.7533 7.44 10.7383C7.395 10.7308 7.3575 10.7683 7.365 10.8133C7.38 10.8658 7.3425 10.9033 7.29 10.8883C7.245 10.8808 7.2075 10.9108 7.215 10.9633C7.23 11.0158 7.0125 11.1658 6.7275 11.3083C6.2775 11.5333 6.1575 11.5633 5.625 11.5633C5.0925 11.5633 4.9725 11.5333 4.5225 11.3083C4.2375 11.1658 4.02 11.0158 4.035 10.9633C4.0425 10.9108 4.005 10.8808 3.96 10.8883C3.9075 10.9033 3.87 10.8658 3.885 10.8133C3.8925 10.7683 3.855 10.7308 3.81 10.7383C3.7575 10.7533 3.72 10.7158 3.735 10.6633C3.7425 10.6183 3.7125 10.5808 3.66 10.5883C3.6075 10.6033 3.4575 10.3858 3.315 10.1008C3.09 9.65079 3.06 9.53079 3.06 8.99829C3.06 8.46579 3.09 8.34579 3.315 7.89579C3.4575 7.61079 3.6075 7.39329 3.66 7.40079C3.7125 7.41579 3.7425 7.37829 3.7275 7.32579C3.72 7.28079 3.7575 7.24329 3.81 7.25079C3.855 7.26579 3.8925 7.22829 3.885 7.17579C3.87 7.13079 3.9075 7.09329 3.96 7.10829C4.02 7.11579 4.0425 7.09329 4.02 7.05579C3.99 7.01829 4.095 6.91329 4.2375 6.82329C5.0325 6.33579 5.925 6.28329 6.735 6.69579Z" fill="currentColor"/>
        <path d="M4.89711 7.49819C4.72461 7.58069 4.55961 7.68569 4.53711 7.72319C4.50711 7.76819 4.45461 7.77569 4.40961 7.75319C4.36461 7.72319 4.34961 7.73819 4.37961 7.78319C4.40211 7.82819 4.39461 7.88069 4.34961 7.91069C4.18461 8.00819 3.97461 8.63069 3.97461 8.99819C3.97461 9.36569 4.18461 9.98819 4.34961 10.0857C4.39461 10.1157 4.40211 10.1682 4.37961 10.2132C4.34961 10.2582 4.36461 10.2732 4.40961 10.2432C4.45461 10.2207 4.50711 10.2282 4.53711 10.2732C4.63461 10.4382 5.25711 10.6482 5.62461 10.6482C5.99211 10.6482 6.61461 10.4382 6.71211 10.2732C6.74211 10.2282 6.79461 10.2207 6.83961 10.2432C6.88461 10.2732 6.89961 10.2582 6.86961 10.2132C6.84711 10.1682 6.85461 10.1157 6.89961 10.0857C7.06461 9.98819 7.27461 9.36569 7.27461 8.99819C7.27461 8.63069 7.06461 8.00819 6.89961 7.91069C6.85461 7.88069 6.84711 7.82819 6.86961 7.78319C6.89961 7.73819 6.88461 7.72319 6.83961 7.75319C6.79461 7.77569 6.74211 7.76819 6.71211 7.72319C6.68961 7.68569 6.51711 7.58069 6.33711 7.49819C5.90961 7.30319 5.31711 7.30319 4.89711 7.49819Z" fill="currentColor"/>
        <path d="M13.53 10.6783C13.5075 10.7758 13.4925 10.9183 13.5 10.9933C13.53 11.2783 13.5 11.3983 13.35 11.5483C13.1175 11.7808 12.795 11.7433 12.4575 11.4358C12.3 11.2933 12.12 11.1733 12.06 11.1733C11.9325 11.1733 11.175 11.9308 11.175 12.0658C11.175 12.1258 11.295 12.2983 11.4375 12.4558C11.9325 13.0033 11.685 13.5733 10.995 13.4983C10.92 13.4908 10.7775 13.5058 10.68 13.5283C10.5075 13.5733 10.5 13.6033 10.5 14.2483C10.5 14.8933 10.5075 14.9233 10.68 14.9683C10.7775 14.9908 10.92 15.0058 10.995 14.9983C11.28 14.9683 11.4 14.9983 11.55 15.1483C11.7825 15.3808 11.745 15.7033 11.4375 16.0408C11.295 16.1983 11.175 16.3783 11.175 16.4383C11.175 16.5658 11.9325 17.3233 12.0675 17.3233C12.1275 17.3233 12.3 17.2033 12.4575 17.0608C13.005 16.5658 13.575 16.8133 13.5 17.5033C13.4925 17.5783 13.5075 17.7208 13.53 17.8183C13.575 17.9908 13.605 17.9983 14.25 17.9983C14.895 17.9983 14.925 17.9908 14.97 17.8183C14.9925 17.7208 15.0075 17.5783 15 17.5033C14.97 17.2183 15 17.0983 15.15 16.9483C15.3825 16.7158 15.705 16.7533 16.0425 17.0608C16.2 17.2033 16.38 17.3233 16.44 17.3233C16.5675 17.3233 17.325 16.5658 17.325 16.4308C17.325 16.3708 17.205 16.1983 17.0625 16.0408C16.5675 15.4933 16.815 14.9233 17.505 14.9983C17.58 15.0058 17.7225 14.9908 17.82 14.9683C17.9925 14.9233 18 14.8933 18 14.2483C18 13.6033 17.9925 13.5733 17.82 13.5283C17.7225 13.5058 17.58 13.4908 17.505 13.4983C17.22 13.5283 17.1 13.4983 16.95 13.3483C16.7175 13.1158 16.755 12.7933 17.0625 12.4558C17.205 12.2983 17.325 12.1183 17.325 12.0583C17.325 11.9308 16.5675 11.1733 16.4325 11.1733C16.3725 11.1733 16.2 11.2933 16.0425 11.4358C15.495 11.9308 14.925 11.6833 15 10.9933C15.0075 10.9183 14.9925 10.7758 14.97 10.6783C14.925 10.5058 14.895 10.4983 14.25 10.4983C13.605 10.4983 13.575 10.5058 13.53 10.6783ZM14.775 12.6433C15.6 12.8908 16.095 13.7383 15.9075 14.5933C15.7425 15.3208 15.3225 15.7408 14.595 15.9058C13.74 16.0933 12.8925 15.5983 12.645 14.7733C12.495 14.2783 12.495 14.2183 12.645 13.7308C12.8025 13.2058 13.14 12.8458 13.65 12.6733C14.16 12.4933 14.2725 12.4933 14.775 12.6433Z" fill="currentColor"/>
        <path d="M13.7325 13.2508C13.3725 13.4383 13.185 13.7233 13.1475 14.1508C13.0875 14.8108 13.4925 15.2908 14.1525 15.3508C14.8125 15.4108 15.2925 15.0058 15.3525 14.3458C15.39 13.9258 15.225 13.5583 14.91 13.3258C14.625 13.1158 14.055 13.0783 13.7325 13.2508Z" fill="currentColor"/>
    </symbol>
    <symbol id="nav-game-engine" xmlns="http://www.w3.org/2000/svg"  viewBox="0 0 25 18" fill="none">
        <path d="M4.3884 0.0284305C4.35848 0.0447512 4.28776 0.101873 4.23063 0.156275C4.17623 0.210677 4.08375 0.28956 4.02935 0.335802C3.97494 0.379323 3.90694 0.444605 3.87702 0.477246C3.84438 0.512608 3.80902 0.539809 3.79542 0.539809C3.75462 0.539809 3.58325 0.738375 3.59685 0.771017C3.60229 0.790057 3.58325 0.800938 3.55061 0.798218C3.51253 0.795497 3.44453 0.839019 3.36836 0.912462C3.13171 1.14095 2.94947 1.30144 2.93043 1.30144C2.91955 1.30144 2.85426 1.35856 2.78354 1.42928C2.71282 1.50272 2.64754 1.55984 2.63666 1.55984C2.6285 1.55984 2.56321 1.61697 2.49521 1.68769C2.42721 1.76113 2.36193 1.81825 2.35105 1.81825C2.34017 1.81825 2.28032 1.86721 2.21776 1.92434C2.1552 1.98418 2.04368 2.08754 1.97023 2.15827C1.89679 2.22627 1.80975 2.29699 1.77983 2.31331C1.74719 2.32963 1.67374 2.39763 1.61662 2.46292C1.55678 2.52548 1.49694 2.57988 1.48334 2.57988C1.46974 2.57988 1.40717 2.63428 1.34461 2.70228C1.27933 2.77029 1.21949 2.82469 1.20861 2.82469C1.19773 2.82469 1.1406 2.87365 1.08076 2.93349C1.02092 2.99333 0.961078 3.0423 0.950198 3.0423C0.936598 3.0423 0.879476 3.09126 0.822354 3.1511C0.762511 3.21094 0.70811 3.2599 0.699949 3.2599C0.689069 3.2599 0.604746 3.33335 0.509543 3.42311C0.242973 3.67336 0.207612 3.706 0.131449 3.75496C0.093368 3.78216 0.0770474 3.80392 0.0906479 3.80664C0.106968 3.80664 0.0906479 3.81752 0.0580067 3.83112C-0.0344765 3.86921 -0.0208761 3.91273 0.131449 4.07321C0.207612 4.15209 0.267454 4.22826 0.267454 4.24186C0.267454 4.27178 0.408899 4.40234 0.44426 4.40234C0.460581 4.40234 0.520423 4.35882 0.574825 4.30714C0.629227 4.25546 0.680909 4.21194 0.686349 4.21194C0.694509 4.21194 0.754351 4.15754 0.822354 4.08953C0.890356 4.02153 0.955638 3.96169 0.966519 3.96169C0.988279 3.95625 1.059 3.89097 1.34733 3.61896C1.41533 3.55639 1.5051 3.48295 1.54318 3.46119C1.58398 3.43671 1.6411 3.38231 1.67102 3.33879C1.69822 3.29526 1.74447 3.25174 1.77439 3.24358C1.80159 3.23542 1.88319 3.16742 1.95391 3.09398C2.02464 3.02054 2.09264 2.96069 2.10624 2.96069C2.11712 2.96069 2.17968 2.90357 2.24496 2.83557C2.30753 2.76757 2.36193 2.7186 2.36193 2.72949C2.36193 2.74037 2.42449 2.68596 2.50065 2.6098C2.57682 2.53364 2.64754 2.47108 2.65842 2.47108C2.66658 2.47108 2.74002 2.41395 2.81618 2.34051C3.06915 2.1093 3.1562 2.03586 3.1834 2.03586C3.197 2.03586 3.19972 2.02226 3.19156 2.00866C3.1834 1.99234 3.18884 1.98146 3.20516 1.98146C3.22148 1.98146 3.29492 1.9189 3.37108 1.84545C3.44453 1.76929 3.51525 1.70945 3.52885 1.70945C3.55605 1.70945 3.74918 1.51632 3.74918 1.4864C3.74918 1.47552 3.7655 1.46464 3.78454 1.46464C3.81446 1.46464 3.98582 1.31776 4.25783 1.05663C4.32312 0.996784 4.38296 0.947823 4.39384 0.947823C4.40744 0.947823 4.46184 0.898861 4.52168 0.839019C4.5788 0.779177 4.64681 0.730215 4.67129 0.730215C4.70937 0.730215 4.70937 0.724775 4.67401 0.703014C4.63865 0.678533 4.63865 0.675813 4.67401 0.675813C4.69577 0.675813 4.75561 0.632292 4.80457 0.58333L4.89434 0.488127L4.75833 0.354842C4.68217 0.278679 4.61961 0.207957 4.61961 0.194356C4.61961 0.183476 4.5788 0.134514 4.52984 0.0855527C4.4564 0.0148301 4.43192 0.00394964 4.3884 0.0284305Z" fill="currentColor"/>
        <path d="M19.6894 0.0257106C19.6894 0.0393109 19.6785 0.0447512 19.6622 0.0365911C19.6486 0.0284305 19.635 0.0393109 19.635 0.0610719C19.635 0.0828323 19.605 0.123634 19.567 0.153555C19.5289 0.183476 19.499 0.221558 19.499 0.235158C19.499 0.251479 19.4745 0.273239 19.4446 0.2814C19.4146 0.28956 19.3902 0.314041 19.3902 0.330361C19.3902 0.349402 19.3602 0.395644 19.3222 0.436445C19.2487 0.518048 19.2378 0.539809 19.2841 0.539809C19.3004 0.539809 19.3657 0.58877 19.4255 0.648612C19.6785 0.890701 19.8363 1.02943 19.858 1.02943C19.8716 1.02943 19.9505 1.09743 20.0321 1.18175C20.1137 1.26607 20.179 1.32864 20.179 1.3232C20.179 1.3096 20.3884 1.49184 20.5516 1.64689C20.6169 1.71217 20.6822 1.76385 20.6931 1.76385C20.7067 1.76385 20.7638 1.81281 20.8209 1.87266C20.8808 1.9325 20.9433 1.98146 20.9624 1.98146C20.9814 1.98146 20.9896 1.99234 20.9814 2.00866C20.9733 2.02226 20.976 2.03586 20.9896 2.03586C21.0032 2.03586 21.0821 2.10386 21.1664 2.18547C21.2534 2.26707 21.3214 2.32419 21.3214 2.31603C21.3214 2.30515 21.3568 2.33235 21.4003 2.37587C21.5227 2.50372 21.8029 2.74853 21.8219 2.74581C21.8301 2.74581 21.8899 2.79749 21.9525 2.86549C22.015 2.93349 22.0858 2.98789 22.1048 2.98789C22.1239 2.98789 22.1347 2.99877 22.1266 3.00965C22.1184 3.02326 22.1429 3.05046 22.1783 3.0695C22.2163 3.08854 22.2653 3.13478 22.2871 3.17014C22.3115 3.20278 22.3415 3.2327 22.3578 3.2327C22.3714 3.2327 22.4448 3.29254 22.521 3.36871C22.5944 3.44215 22.6706 3.50471 22.6842 3.50471C22.7005 3.50471 22.7032 3.51559 22.6951 3.53191C22.6869 3.54551 22.6978 3.55911 22.7196 3.55911C22.7413 3.55911 22.7821 3.58632 22.8093 3.61896C22.8365 3.65432 22.9208 3.73048 22.9943 3.79032C23.0704 3.85016 23.152 3.92633 23.182 3.96169C23.2092 3.99705 23.2364 4.01881 23.2418 4.01337C23.25 4.00793 23.3153 4.05689 23.386 4.12761C23.5465 4.27994 23.6933 4.40234 23.7178 4.40234C23.7423 4.40234 23.8511 4.30442 23.8511 4.28266C23.8511 4.27178 23.9055 4.20922 23.9708 4.13849C24.1884 3.90729 24.221 3.85832 24.1449 3.85832C24.1286 3.85832 24.0633 3.80392 23.998 3.73592C23.9354 3.66792 23.8729 3.61352 23.8593 3.61352C23.8375 3.61352 23.745 3.53191 23.3969 3.20278C23.3343 3.14566 23.2745 3.0967 23.2636 3.0967C23.2527 3.0967 23.1847 3.03414 23.1112 2.95797C23.0405 2.88181 22.9807 2.83013 22.9807 2.84101C22.9807 2.85461 22.9263 2.80565 22.8583 2.73493C22.7903 2.6642 22.725 2.60708 22.7141 2.60708C22.7032 2.60708 22.6216 2.53908 22.5319 2.45748C22.3469 2.28611 22.1483 2.1093 22.0259 2.00866C21.9824 1.97058 21.8818 1.88082 21.8029 1.80737C21.724 1.73665 21.6342 1.66593 21.6016 1.65233C21.5662 1.63873 21.539 1.61153 21.539 1.58705C21.539 1.56528 21.5282 1.54624 21.5118 1.54624C21.4982 1.54624 21.452 1.50816 21.4112 1.46464C21.3731 1.4184 21.3214 1.38304 21.2997 1.38304C21.2752 1.38304 21.267 1.37488 21.2752 1.364C21.2861 1.35584 21.267 1.32592 21.2317 1.30416C21.1664 1.25791 21.0576 1.15999 20.8291 0.942383C20.7556 0.87166 20.6958 0.825418 20.6958 0.836299C20.6958 0.847179 20.6169 0.781897 20.519 0.686694C20.4238 0.59421 20.3204 0.509887 20.2878 0.499007C20.2579 0.488127 20.2388 0.471806 20.247 0.458206C20.2551 0.444605 20.2279 0.411964 20.1871 0.384763C20.1463 0.357562 20.0729 0.29772 20.0239 0.254199C19.9777 0.207957 19.9097 0.150835 19.8771 0.123634C19.8417 0.099153 19.8254 0.0773926 19.839 0.0773926C19.8553 0.0773926 19.8308 0.0583515 19.7873 0.0365911C19.6948 -0.0123706 19.6894 -0.0123706 19.6894 0.0257106Z" fill="currentColor"/>
        <path d="M4.86724 0.936781C4.80196 1.00206 4.72852 1.06191 4.70404 1.07007C4.67956 1.07823 4.63604 1.11903 4.60612 1.16527C4.57619 1.21151 4.52995 1.25503 4.50547 1.26319C4.47827 1.27135 4.45651 1.29039 4.45651 1.30399C4.45651 1.31759 4.44019 1.32847 4.42115 1.32847C4.40211 1.32847 4.37219 1.35296 4.35315 1.38288C4.33411 1.4128 4.30147 1.43728 4.2797 1.43728C4.25794 1.43728 4.2389 1.45632 4.2389 1.47808C4.2389 1.49984 4.22802 1.51888 4.2117 1.51888C4.1845 1.51888 4.13282 1.56512 3.82001 1.85889C3.71664 1.95682 3.62416 2.0357 3.616 2.0357C3.60784 2.0357 3.55888 2.07922 3.5072 2.1309C3.45552 2.18258 3.39839 2.22611 3.37663 2.22611C3.35487 2.22611 3.34671 2.23699 3.35487 2.25331C3.36303 2.26691 3.36031 2.28051 3.34399 2.28051C3.33039 2.28051 3.25423 2.34579 3.17535 2.42195C3.09918 2.50084 3.02302 2.56612 3.00942 2.56612C2.99582 2.56612 2.96318 2.59332 2.9387 2.62324C2.91422 2.65588 2.86526 2.69668 2.83261 2.713C2.79725 2.73204 2.77005 2.76197 2.77005 2.78373C2.77005 2.80549 2.75373 2.82453 2.73469 2.82453C2.70205 2.82453 2.48716 3.00949 2.30764 3.19174C2.26955 3.22982 2.22875 3.25974 2.21787 3.25974C2.20699 3.25974 2.14443 3.31414 2.07915 3.38215C2.01115 3.45015 1.94314 3.50455 1.92682 3.50455C1.9105 3.50455 1.90506 3.51543 1.91322 3.53175C1.92138 3.54535 1.91594 3.55895 1.90234 3.55895C1.88602 3.55895 1.82074 3.60791 1.75818 3.66776C1.69289 3.7276 1.63033 3.77656 1.61401 3.77656C1.60041 3.77656 1.56233 3.81192 1.53241 3.85816C1.50249 3.90169 1.45081 3.95337 1.41816 3.96969C1.3828 3.98873 1.3556 4.02137 1.3556 4.04585C1.3556 4.08393 1.35016 4.08393 1.3284 4.04857C1.30936 4.02137 1.3012 4.01865 1.3012 4.04313C1.3012 4.06217 1.2604 4.10025 1.21416 4.13017C1.1652 4.16009 1.13527 4.18458 1.14615 4.18458C1.15704 4.18458 1.1516 4.2009 1.13255 4.22266C1.11351 4.24442 1.08631 4.25802 1.06999 4.25802C1.05639 4.2553 1.04551 4.2689 1.05095 4.28522C1.05367 4.30426 1.04551 4.32058 1.03191 4.32058C1.02103 4.32058 0.974789 4.35322 0.931267 4.39402C0.887746 4.43482 0.841504 4.47019 0.825184 4.47019C0.787102 4.47019 0.72998 4.59531 0.72998 4.67419C0.732701 4.71227 0.749021 4.76396 0.768062 4.78844C0.806143 4.84012 0.920387 4.85644 0.920387 4.8102C0.920387 4.79388 0.936708 4.783 0.958468 4.783C0.980229 4.783 1.01831 4.7558 1.04007 4.72315C1.06455 4.69051 1.08359 4.67147 1.08359 4.68235C1.08359 4.70139 1.12711 4.66875 1.32296 4.49195C1.39368 4.42938 1.50521 4.32874 1.57321 4.2689C1.64121 4.20906 1.76362 4.10025 1.84522 4.02409C2.14987 3.74664 2.21243 3.69496 2.24779 3.69496C2.26683 3.69496 2.27771 3.68408 2.26683 3.66776C2.25867 3.65416 2.28587 3.62424 2.3294 3.60247C2.37292 3.58071 2.41644 3.54263 2.42732 3.51815C2.43548 3.49639 2.47356 3.46375 2.51164 3.44471C2.54972 3.42839 2.57965 3.39847 2.57965 3.37671C2.57965 3.35767 2.59325 3.34135 2.60957 3.34135C2.62861 3.34135 2.66941 3.31414 2.70205 3.27878C2.83805 3.14278 3.10462 2.91973 3.1291 2.92789C3.1427 2.93061 3.14814 2.92245 3.13998 2.90885C3.1291 2.89525 3.13454 2.87893 3.14814 2.87349C3.17535 2.86533 3.42831 2.64772 3.57792 2.50356C3.62688 2.45731 3.68128 2.41651 3.6976 2.41651C3.71392 2.41651 3.71664 2.40291 3.70848 2.38931C3.70032 2.37299 3.70576 2.36211 3.71936 2.36211C3.73569 2.36211 3.80097 2.31315 3.86081 2.25331C3.92337 2.19347 3.99137 2.1445 4.01586 2.1445C4.03762 2.1445 4.05122 2.13634 4.04306 2.12818C4.03218 2.12002 4.0621 2.07922 4.1029 2.04114C4.21714 1.93234 4.2933 1.87249 4.2933 1.88609C4.2933 1.89425 4.34499 1.84529 4.41027 1.77729C4.47555 1.70929 4.54083 1.65489 4.55443 1.65489C4.56803 1.65489 4.62788 1.60048 4.68772 1.53248C4.74756 1.46448 4.8074 1.41008 4.821 1.41008C4.8346 1.41008 4.89989 1.3584 4.96517 1.29311C5.03317 1.23055 5.12293 1.14351 5.16646 1.10271C5.25894 1.01566 5.26438 0.953102 5.19366 0.871499C5.11205 0.776296 5.00597 0.798056 4.86724 0.936781Z" fill="currentColor"/>
        <path d="M18.9542 0.863409C18.9052 0.958613 18.9243 1.04294 19.0222 1.1463C19.0739 1.2007 19.1255 1.24694 19.1364 1.24694C19.15 1.24694 19.2044 1.2959 19.2643 1.35575C19.3214 1.41559 19.3812 1.46455 19.3948 1.46455C19.4057 1.46455 19.4683 1.51895 19.5308 1.58695C19.5934 1.65496 19.6614 1.70936 19.6859 1.70936C19.7076 1.70936 19.7158 1.71752 19.7076 1.7284C19.6968 1.73656 19.7158 1.76648 19.7484 1.78824C19.8328 1.84808 19.9361 1.93785 20.1293 2.12281C20.219 2.20986 20.3006 2.28058 20.3115 2.28058C20.3387 2.28058 20.5318 2.47371 20.5318 2.50363C20.5318 2.51451 20.5482 2.52539 20.5672 2.52539C20.5835 2.52539 20.6515 2.57435 20.7168 2.63419C20.7794 2.69403 20.8446 2.743 20.861 2.743C20.8746 2.743 20.88 2.75388 20.8718 2.7702C20.8637 2.7838 20.8691 2.7974 20.8854 2.7974C20.9018 2.7974 20.9534 2.83276 21.0024 2.879C21.3016 3.15645 21.3914 3.23533 21.4349 3.24893C21.4621 3.25709 21.4839 3.27341 21.4839 3.28429C21.4839 3.31422 21.6661 3.49102 21.6933 3.49102C21.7069 3.49102 21.7749 3.55086 21.8456 3.62431C21.9164 3.69775 21.9735 3.74943 21.9735 3.73855C21.9735 3.73039 22.0388 3.78207 22.1176 3.85551C22.406 4.13024 22.4985 4.21185 22.5202 4.21185C22.5311 4.21185 22.5556 4.23361 22.5692 4.25809C22.5855 4.28529 22.5991 4.29889 22.5991 4.28801C22.5991 4.27713 22.6453 4.31521 22.7025 4.37233C22.7569 4.42945 22.8303 4.49202 22.8657 4.50834C22.8983 4.52738 22.9201 4.55186 22.9119 4.56818C22.901 4.58178 22.9092 4.59266 22.9255 4.59266C22.9418 4.59266 22.9962 4.63346 23.0479 4.6797C23.2356 4.85923 23.2873 4.87555 23.3879 4.79123C23.4859 4.7069 23.4587 4.61714 23.2791 4.43489C23.1894 4.34513 23.1159 4.27713 23.1159 4.28801C23.1159 4.29617 23.067 4.25537 23.0098 4.19553C22.95 4.1384 22.8902 4.08944 22.8793 4.08944C22.8657 4.08944 22.8004 4.03232 22.7324 3.95888C22.6644 3.88816 22.5937 3.83103 22.5746 3.83103C22.5556 3.83103 22.5501 3.81743 22.5583 3.80383C22.5665 3.78751 22.561 3.77663 22.5447 3.77663C22.5284 3.77663 22.4767 3.74127 22.4277 3.69503C22.3788 3.65151 22.2673 3.54814 22.1802 3.46382C22.0904 3.38222 22.0088 3.31422 22.0007 3.31422C21.9898 3.31422 21.9191 3.25165 21.8402 3.17821C21.7613 3.10205 21.6852 3.04221 21.6716 3.04221C21.6552 3.04221 21.6525 3.02861 21.6607 3.015C21.6688 2.99868 21.6634 2.9878 21.6471 2.9878C21.6307 2.9878 21.5872 2.95516 21.5491 2.91164C21.5111 2.87084 21.4703 2.8382 21.4567 2.8382C21.4458 2.8382 21.3751 2.77564 21.2989 2.69947C21.2255 2.62059 21.1411 2.54987 21.1139 2.54171C21.084 2.53355 21.0378 2.49003 21.0078 2.4465C20.9779 2.40026 20.9344 2.35402 20.9072 2.34314C20.8528 2.31866 20.6461 2.13913 20.4502 1.94601C20.3795 1.87528 20.3088 1.81816 20.2979 1.81816C20.287 1.81816 20.2217 1.76376 20.1537 1.69576C20.015 1.56247 19.9334 1.49175 19.7838 1.36935C19.7267 1.32311 19.6288 1.23606 19.5662 1.17078C19.5036 1.10822 19.4384 1.05654 19.422 1.05654C19.4057 1.05654 19.3731 1.02662 19.3486 0.993974C19.3268 0.958613 19.2779 0.912371 19.2398 0.89333C19.2044 0.87429 19.1799 0.847089 19.1881 0.833488C19.1963 0.822608 19.1527 0.811728 19.0929 0.811728C19.0113 0.811728 18.9759 0.825328 18.9542 0.863409Z" fill="currentColor"/>
        <path d="M5.41641 1.3014C5.38104 1.315 5.35384 1.33948 5.35384 1.35581C5.35384 1.37213 5.31304 1.40205 5.26408 1.42653C5.21512 1.45101 5.14984 1.50269 5.12264 1.54621C5.09543 1.58701 5.03559 1.64414 4.98935 1.66862C4.94583 1.69582 4.85879 1.77198 4.79622 1.83726C4.73366 1.89982 4.67382 1.95423 4.66022 1.95423C4.64934 1.95423 4.58678 2.00863 4.52693 2.07391C4.46437 2.13647 4.39365 2.19903 4.36645 2.2072C4.33925 2.21808 4.32565 2.23712 4.33381 2.25344C4.34197 2.26704 4.33381 2.28064 4.31477 2.28064C4.29573 2.28064 4.24948 2.31056 4.2114 2.34864C4.13524 2.42208 4.0482 2.49825 3.89859 2.62065C3.84419 2.66417 3.74083 2.75937 3.66738 2.8301C3.59666 2.90354 3.52866 2.96066 3.51778 2.96066C3.5069 2.96066 3.44162 3.01506 3.37361 3.08307C3.13425 3.31155 2.94928 3.47748 2.93024 3.47748C2.91936 3.47748 2.85136 3.53732 2.77791 3.61348C2.70719 3.68693 2.63647 3.74949 2.62287 3.74949C2.60927 3.74949 2.54942 3.80117 2.4923 3.86373C2.43246 3.92902 2.37534 3.9807 2.36446 3.9807C2.35358 3.9807 2.29102 4.03238 2.22301 4.09494C2.15773 4.1575 2.04349 4.26359 1.97004 4.33159C1.89932 4.39959 1.8286 4.45671 1.81772 4.45671C1.80684 4.45671 1.74972 4.50296 1.68987 4.55736C1.63003 4.61448 1.50491 4.72872 1.4097 4.81033C1.1377 5.04969 1.1377 5.04969 1.1377 5.1449C1.1377 5.30538 1.2465 5.34346 1.42875 5.24554C1.48587 5.21562 1.51851 5.19114 1.50491 5.19114C1.48859 5.19114 1.49403 5.18026 1.51579 5.16666C1.57019 5.1313 1.79868 4.92729 1.95372 4.77496C2.02445 4.70424 2.09517 4.64712 2.10877 4.64712C2.12237 4.64712 2.18493 4.59272 2.24749 4.52472C2.31006 4.45671 2.36174 4.41319 2.36174 4.42951C2.36174 4.44311 2.41614 4.39687 2.48414 4.32615C2.55215 4.25543 2.60655 4.19014 2.60655 4.18198C2.60655 4.1711 2.64191 4.14934 2.68815 4.1303C2.73167 4.11126 2.78607 4.07046 2.80783 4.0351C2.83231 3.99974 2.87584 3.96438 2.90576 3.9535C2.93568 3.94262 2.95472 3.92358 2.94656 3.90997C2.93568 3.89637 2.94112 3.88549 2.95744 3.88549C2.97376 3.88549 3.02272 3.85285 3.06624 3.80933C3.30561 3.589 3.48242 3.43668 3.50146 3.43668C3.51234 3.43668 3.5749 3.37956 3.64018 3.30611C3.70547 3.23539 3.76803 3.17827 3.77891 3.17827C3.78979 3.17827 3.85507 3.12387 3.92307 3.05586C3.9938 2.98786 4.0618 2.93346 4.07812 2.93346C4.09172 2.93346 4.09716 2.91986 4.089 2.90626C4.08084 2.88994 4.08628 2.87906 4.09988 2.87906C4.1162 2.87906 4.18148 2.8301 4.24132 2.77025C4.30389 2.71041 4.36373 2.66145 4.37733 2.66145C4.39093 2.66145 4.45349 2.60705 4.51605 2.53905C4.57862 2.47104 4.63846 2.41664 4.64934 2.41664C4.66566 2.41664 4.85063 2.25072 5.07095 2.03583C5.13352 1.97599 5.19336 1.92703 5.20696 1.92703C5.22056 1.92703 5.27496 1.87806 5.33208 1.82094C5.38648 1.76382 5.46809 1.6931 5.51433 1.6659C5.61497 1.60605 5.66393 1.49725 5.63945 1.38845C5.61769 1.28508 5.53609 1.25516 5.41641 1.3014Z" fill="currentColor"/>
        <path d="M18.555 1.30687C18.4516 1.35583 18.4707 1.50272 18.5904 1.61696C18.6448 1.66864 18.7019 1.70944 18.7155 1.70944C18.7291 1.70944 18.7318 1.72032 18.7236 1.73664C18.7155 1.75024 18.7236 1.76385 18.7427 1.76385C18.7644 1.76385 18.8188 1.80737 18.8705 1.85905C18.9195 1.91073 18.9712 1.95425 18.9848 1.95425C18.9984 1.95425 19.0582 2.00049 19.1181 2.0549C19.3574 2.28882 19.5125 2.43027 19.5315 2.43027C19.5397 2.43027 19.6022 2.48739 19.6702 2.55811C19.7382 2.63156 19.8062 2.68868 19.8198 2.68868C19.8362 2.68868 19.8878 2.7322 19.9368 2.78388C19.9885 2.83556 20.0429 2.87908 20.0646 2.87908C20.0837 2.87908 20.0946 2.88997 20.0837 2.90357C20.0755 2.91989 20.0891 2.94165 20.1163 2.95525C20.1735 2.98789 20.3611 3.15109 20.5379 3.3279C20.6141 3.40134 20.6875 3.46391 20.6984 3.46391C20.7093 3.46391 20.7664 3.51287 20.8263 3.57271C20.8834 3.63255 20.965 3.70599 21.0112 3.73319C21.0548 3.76312 21.1064 3.80936 21.1255 3.83656C21.1445 3.86376 21.1799 3.88552 21.2016 3.88552C21.2234 3.88552 21.2343 3.8964 21.2261 3.91272C21.218 3.92632 21.2207 3.93992 21.2343 3.93992C21.2479 3.93992 21.3105 3.98616 21.3703 4.04057C21.4301 4.09769 21.5444 4.19833 21.6205 4.26633C21.6967 4.33434 21.8109 4.43498 21.8735 4.49482C21.9361 4.55194 22.0177 4.62267 22.0558 4.65259C22.1346 4.71515 22.423 4.97084 22.5699 5.11228C22.7385 5.27277 22.8255 5.31357 22.9316 5.28365C23.0078 5.26189 23.0241 5.24285 23.0296 5.16941C23.0377 5.0878 23.0187 5.0606 22.8718 4.9246C22.7793 4.84027 22.6623 4.73147 22.6079 4.68795C22.5535 4.64171 22.4855 4.57914 22.4556 4.54378C22.423 4.51114 22.3903 4.48394 22.3794 4.48394C22.3577 4.48394 22.2081 4.35338 21.9769 4.13033C21.9089 4.06505 21.8436 4.00792 21.8327 4.00792C21.8191 4.00792 21.762 3.95624 21.7049 3.89368C21.645 3.83112 21.5933 3.7876 21.5852 3.79304C21.5797 3.79848 21.5199 3.74952 21.4546 3.68151C21.3893 3.61351 21.3186 3.55911 21.2969 3.55911C21.2751 3.55911 21.2669 3.55095 21.2751 3.54007C21.286 3.53191 21.2669 3.50199 21.2316 3.48023C21.1663 3.43398 21.0575 3.33606 20.829 3.11573C20.7528 3.04501 20.6848 2.98789 20.6739 2.98789C20.6631 2.98789 20.6141 2.94437 20.5624 2.89269C20.5107 2.841 20.4591 2.79748 20.4455 2.79748C20.4319 2.79748 20.4291 2.78388 20.4373 2.77028C20.4455 2.75396 20.4346 2.74308 20.4128 2.74308C20.3911 2.74308 20.3285 2.69956 20.2741 2.64244C20.2224 2.58803 20.1789 2.55267 20.1789 2.56355C20.1789 2.57171 20.1136 2.51731 20.032 2.43843C19.8334 2.2453 19.6566 2.09026 19.5995 2.05762C19.575 2.04402 19.5533 2.01409 19.5533 1.99233C19.5533 1.97057 19.5424 1.95697 19.5315 1.96513C19.5179 1.97329 19.4581 1.92977 19.3955 1.86993C19.3329 1.81281 19.2677 1.76385 19.2513 1.76385C19.2377 1.76385 19.2296 1.75296 19.2377 1.74208C19.2459 1.72848 19.2214 1.70128 19.1861 1.68224C19.148 1.6632 19.099 1.61696 19.0773 1.5816C19.0528 1.54896 19.0229 1.51904 19.0065 1.51904C18.9929 1.51904 18.9385 1.47824 18.8896 1.42927C18.7318 1.27423 18.6692 1.25247 18.555 1.30687Z" fill="currentColor"/>
        <path d="M18.19 1.69539C18.1872 1.70355 18.1845 1.71987 18.1818 1.73347C18.1818 1.74707 18.1192 1.81235 18.0485 1.88308C17.9751 1.95108 17.9261 2.0082 17.9397 2.0082C17.9506 2.0082 17.9043 2.0626 17.8336 2.1306C17.7629 2.19861 17.7194 2.25301 17.7357 2.25301C17.752 2.25301 17.7303 2.28021 17.6867 2.31285C17.597 2.38085 17.5235 2.47334 17.5344 2.50326C17.5371 2.51686 17.5208 2.52502 17.499 2.52502C17.4773 2.52502 17.4582 2.5359 17.4582 2.5495C17.4582 2.5631 17.412 2.62294 17.3576 2.68278C17.3005 2.74263 17.1998 2.85687 17.1318 2.93303C17.0638 3.01192 16.9387 3.14792 16.8544 3.23768C16.7673 3.32745 16.6966 3.40905 16.6966 3.41993C16.6966 3.42809 16.6477 3.48793 16.5878 3.55322C16.528 3.61578 16.479 3.68106 16.479 3.69738C16.479 3.71098 16.4681 3.71642 16.4518 3.70826C16.4382 3.7001 16.4246 3.70282 16.4246 3.7137C16.4246 3.73818 16.3212 3.86059 16.1254 4.06731C16.0656 4.1326 16.003 4.21148 15.9867 4.24684C15.9704 4.27948 15.9241 4.33116 15.8806 4.36108C15.7827 4.42637 15.731 4.54061 15.7582 4.63853C15.7745 4.70926 15.9731 4.9187 16.022 4.9187C16.0329 4.9187 16.0438 4.93774 16.0438 4.96222C16.0438 4.98399 16.0547 4.99759 16.0683 4.98943C16.0819 4.98127 16.1064 4.99215 16.1254 5.01391C16.1444 5.03567 16.1744 5.05471 16.1934 5.05471C16.2288 5.05471 16.4246 4.84798 16.4246 4.80718C16.4246 4.79358 16.4437 4.7827 16.4654 4.7827C16.4872 4.7827 16.5062 4.7691 16.5062 4.7555C16.5062 4.73918 16.5389 4.69566 16.5824 4.65757C16.6232 4.61949 16.6558 4.57597 16.6558 4.56509C16.6558 4.55421 16.7048 4.49709 16.7619 4.44269C16.8598 4.3502 16.8816 4.34204 16.9877 4.35564C17.0856 4.36652 17.1291 4.391 17.2243 4.49437C17.2896 4.56237 17.3549 4.61949 17.3685 4.61949C17.3821 4.61949 17.4419 4.67117 17.5018 4.73646C17.5589 4.79902 17.6405 4.86974 17.684 4.88878C17.7384 4.9187 17.7493 4.93502 17.7248 4.95134C17.6976 4.96766 17.7003 4.97311 17.733 4.97311C17.7765 4.97311 17.9751 5.15535 17.9751 5.19615C17.9751 5.20703 17.9941 5.21791 18.0159 5.21791C18.0376 5.21791 18.0975 5.26144 18.1519 5.31856C18.2036 5.37296 18.2471 5.40832 18.2471 5.39472C18.2471 5.38384 18.2661 5.38928 18.2879 5.40832C18.3096 5.42736 18.3232 5.45184 18.3151 5.46272C18.3069 5.47632 18.3232 5.49264 18.3532 5.50352C18.3831 5.51168 18.4239 5.54977 18.4484 5.58513C18.4728 5.62321 18.5082 5.65313 18.5272 5.65313C18.5436 5.65313 18.6116 5.71025 18.6769 5.77553C18.7421 5.84354 18.8047 5.89794 18.8156 5.89794C18.8346 5.89794 19.0196 6.06386 19.259 6.29235C19.327 6.36035 19.3922 6.41476 19.4031 6.41476C19.414 6.41476 19.482 6.47188 19.5527 6.5426C19.6262 6.61604 19.7295 6.70853 19.7839 6.75477C20.1484 7.05126 20.211 7.11926 20.2137 7.22534C20.2164 7.27975 20.2028 7.32599 20.1838 7.33415C20.1647 7.33959 20.1511 7.35863 20.1511 7.38039C20.1511 7.39943 20.1022 7.46199 20.0423 7.51911C19.9825 7.57896 19.9335 7.64152 19.9335 7.66056C19.9335 7.6796 19.9227 7.68776 19.9063 7.6796C19.8927 7.67144 19.8791 7.67416 19.8791 7.68776C19.8791 7.70136 19.8139 7.77752 19.7377 7.85913C19.6588 7.94073 19.5935 8.02233 19.5935 8.03865C19.5935 8.05769 19.637 8.10938 19.6887 8.15562C19.7404 8.20186 19.8275 8.28074 19.8819 8.3297C19.9363 8.37866 19.9988 8.42763 20.026 8.43579C20.0967 8.46299 20.23 8.42491 20.2463 8.37322C20.2545 8.34602 20.2871 8.31882 20.3171 8.31066C20.3497 8.3025 20.366 8.28346 20.3579 8.26714C20.347 8.25354 20.3633 8.22362 20.3905 8.20458C20.4177 8.18554 20.464 8.13386 20.4939 8.08761C20.5211 8.04409 20.5972 7.95977 20.6625 7.89993C20.7251 7.84009 20.7768 7.78024 20.7768 7.76936C20.7768 7.75848 20.8339 7.69048 20.9073 7.61432C21.2256 7.27975 21.348 7.14374 21.348 7.12198C21.348 7.10838 21.3752 7.07574 21.4105 7.04854C21.4432 7.02134 21.5194 6.93701 21.5792 6.86357C21.639 6.78741 21.7152 6.70581 21.7478 6.67861C21.7832 6.6514 21.8104 6.6106 21.8104 6.58884C21.8104 6.56708 21.8213 6.55348 21.8349 6.56436C21.8512 6.57252 21.8757 6.55076 21.8947 6.51812C21.9138 6.48548 21.9682 6.41476 22.0171 6.36035C22.2511 6.11283 22.3272 6.02578 22.3272 6.00402C22.3272 5.99042 22.3816 5.92786 22.4496 5.8653C22.5176 5.80273 22.572 5.73745 22.572 5.72113C22.572 5.70481 22.5965 5.67761 22.6264 5.65857C22.6727 5.63137 22.6754 5.61505 22.6536 5.57153C22.6373 5.54161 22.6101 5.51712 22.5911 5.51712C22.572 5.51712 22.4986 5.45456 22.4279 5.38112C22.3544 5.30768 22.2755 5.23967 22.2511 5.23151C22.2239 5.22607 22.1803 5.18255 22.1504 5.13631C22.1205 5.09007 22.0743 5.04655 22.047 5.03839C22.0198 5.03023 21.9301 4.95678 21.8485 4.87518C21.7669 4.79358 21.7016 4.73646 21.7016 4.74462C21.7016 4.7555 21.6472 4.70654 21.5819 4.63853C21.5166 4.56781 21.4513 4.51069 21.4377 4.51069C21.4241 4.51069 21.3616 4.45629 21.299 4.38828C21.2365 4.32028 21.1848 4.27676 21.1848 4.29036C21.1848 4.30396 21.1059 4.23868 21.0107 4.1462C20.9128 4.05643 20.7768 3.93131 20.7088 3.87147C20.638 3.81162 20.5211 3.70554 20.4476 3.6321C20.3715 3.56138 20.3035 3.50425 20.2899 3.50425C20.2627 3.50425 20.0695 3.31113 20.0695 3.28121C20.0695 3.27033 20.0532 3.25944 20.0342 3.25944C20.0043 3.25944 19.8275 3.10984 19.5527 2.84599C19.4874 2.78071 19.4222 2.72903 19.4113 2.72903C19.4004 2.72903 19.3542 2.69094 19.3079 2.64198C19.2617 2.59302 19.1991 2.54678 19.1692 2.53862C19.142 2.52774 19.1175 2.5087 19.1175 2.4951C19.1175 2.46518 18.9244 2.28021 18.8917 2.28021C18.8809 2.28021 18.8183 2.22581 18.7557 2.15781C18.6905 2.0898 18.6224 2.0354 18.6034 2.0354C18.5844 2.0354 18.5789 2.0218 18.5871 2.0082C18.5952 1.99188 18.5898 1.981 18.5735 1.981C18.5572 1.981 18.4837 1.92116 18.4103 1.84771C18.2906 1.72803 18.1981 1.66547 18.19 1.69539ZM19.8329 3.7545C19.9036 3.7681 19.9607 3.79258 19.9607 3.80346C19.9607 3.81706 19.9879 3.83611 20.0206 3.84699C20.0995 3.87147 20.396 4.1734 20.396 4.22508C20.396 4.24684 20.4068 4.26588 20.4204 4.26588C20.4612 4.26588 20.5129 4.50797 20.5129 4.69838C20.5129 4.89694 20.4585 5.16351 20.4204 5.16351C20.4068 5.16351 20.396 5.17983 20.396 5.20159C20.396 5.22063 20.3769 5.25328 20.3551 5.27232C20.3307 5.29136 20.3171 5.31312 20.3252 5.31856C20.3307 5.324 20.2926 5.37024 20.2409 5.41648C20.1892 5.46544 20.1239 5.52528 20.0967 5.54977C20.0396 5.60145 19.8247 5.68033 19.7431 5.68033C19.7132 5.68033 19.6887 5.69121 19.6887 5.70753C19.6887 5.72385 19.6126 5.73473 19.5119 5.73473C19.4113 5.73473 19.3351 5.72385 19.3351 5.70753C19.3351 5.69121 19.3161 5.68033 19.2943 5.68033C19.2372 5.68033 19.0087 5.59873 18.9625 5.56337C18.821 5.4464 18.6796 5.28864 18.666 5.22879C18.6551 5.18527 18.6415 5.16895 18.6279 5.19071C18.617 5.20703 18.5925 5.14991 18.5708 5.05743C18.5517 4.96494 18.5245 4.8915 18.5136 4.8915C18.5028 4.8915 18.4919 4.80446 18.4919 4.7011C18.4919 4.59501 18.5028 4.51069 18.5136 4.51069C18.5272 4.51069 18.5517 4.44813 18.5708 4.37468C18.5898 4.29852 18.6143 4.23868 18.6279 4.23868C18.6388 4.23868 18.6551 4.21692 18.666 4.18972C18.6986 4.08635 18.8265 3.94219 18.8863 3.93947C18.9026 3.93947 18.9298 3.91499 18.9489 3.88507C18.9679 3.85243 18.9951 3.83611 19.0087 3.84427C19.025 3.85515 19.0441 3.84155 19.0522 3.81978C19.0604 3.79802 19.1284 3.7681 19.2073 3.75178C19.2862 3.73546 19.3732 3.71642 19.4031 3.71098C19.4711 3.69738 19.6642 3.71642 19.8329 3.7545Z" fill="currentColor"/>
        <path d="M19.221 3.98069C19.115 4.01877 19.0932 4.03509 18.949 4.16294C18.862 4.24182 18.7913 4.35606 18.7913 4.41591C18.7913 4.43495 18.7749 4.45671 18.7586 4.46487C18.7124 4.47847 18.7097 4.96536 18.7532 4.99529C18.7695 5.00617 18.8049 5.06329 18.8348 5.12313C18.8919 5.24825 18.9817 5.33258 19.1177 5.39786C19.1694 5.42234 19.221 5.4577 19.2319 5.47402C19.2618 5.52026 19.7379 5.51482 19.7678 5.46858C19.7814 5.44682 19.795 5.43322 19.8004 5.43594C19.863 5.46042 20.1513 5.24281 20.1513 5.16937C20.1513 5.15033 20.1622 5.13945 20.1758 5.15033C20.222 5.17753 20.2928 4.88376 20.2928 4.67703C20.29 4.52471 20.2166 4.2935 20.154 4.24998C20.1295 4.23094 20.1105 4.20102 20.1105 4.18198C20.1105 4.16022 20.0806 4.1303 20.0452 4.11397C20.0099 4.09493 19.9745 4.06773 19.9636 4.05413C19.9011 3.95349 19.4196 3.90725 19.221 3.98069ZM19.7787 4.19014C19.8059 4.21462 19.8467 4.24182 19.8739 4.24998C19.9011 4.25814 19.9446 4.3071 19.9745 4.35334C20.0017 4.40231 20.0371 4.45127 20.0534 4.46215C20.0969 4.49207 20.1051 4.86744 20.0643 4.93272C20.0452 4.96536 20.0044 5.02793 19.9745 5.07689C19.9446 5.12313 19.9038 5.16393 19.8847 5.16393C19.8657 5.16393 19.8548 5.17481 19.863 5.18841C19.8847 5.22105 19.7406 5.27002 19.5692 5.28906C19.3951 5.3081 19.2183 5.24825 19.1204 5.13945C18.9953 4.99801 18.9844 4.97897 18.9517 4.85112C18.9082 4.68247 18.9599 4.44855 19.0551 4.35878C19.0932 4.32342 19.115 4.2935 19.1014 4.2935C19.0878 4.2935 19.1177 4.27174 19.1639 4.24998C19.2129 4.2255 19.2455 4.19558 19.2401 4.1847C19.1966 4.11669 19.7134 4.12214 19.7787 4.19014Z" fill="currentColor"/>
        <path d="M5.88434 1.73662C5.8925 1.75022 5.88706 1.76382 5.87346 1.76382C5.85714 1.76382 5.79186 1.81278 5.72929 1.87262C5.66401 1.93246 5.59601 1.98143 5.57969 1.98143C5.56065 1.98143 5.54433 1.99231 5.54433 2.00319C5.54433 2.03311 5.3512 2.22623 5.324 2.22623C5.30224 2.22623 5.14991 2.36224 4.94591 2.55809C4.87518 2.63153 4.80446 2.68865 4.79086 2.68865C4.77998 2.68865 4.71198 2.74577 4.64126 2.81921C4.57053 2.88994 4.46717 2.98242 4.41277 3.02866C4.35837 3.07218 4.2822 3.14019 4.24684 3.17827C4.21148 3.21635 4.1734 3.24627 4.16252 3.24627C4.15164 3.24627 4.09724 3.29523 4.04011 3.35507C3.98299 3.41492 3.92587 3.46388 3.91227 3.46388C3.90139 3.46388 3.83611 3.521 3.76811 3.59172C3.7001 3.66516 3.63482 3.72229 3.62122 3.72229C3.60762 3.72229 3.5505 3.77125 3.4961 3.83109C3.44169 3.89365 3.39545 3.92901 3.39545 3.91269C3.39545 3.89909 3.34377 3.93989 3.28121 4.0079C3.21865 4.0759 3.15608 4.1303 3.14248 4.1303C3.12888 4.1303 3.06088 4.18742 2.98744 4.25814C2.79431 4.45127 2.55494 4.66072 2.51686 4.66888C2.49782 4.6716 2.45974 4.70968 2.43254 4.7532C2.40262 4.79672 2.3455 4.85113 2.30197 4.87833C2.25845 4.90281 2.23397 4.93545 2.24213 4.95177C2.25301 4.96809 2.25029 4.97353 2.23397 4.96537C2.21765 4.95449 2.13877 5.01161 2.05445 5.09049C1.85316 5.2809 1.76067 5.35978 1.68723 5.41147C1.65459 5.43323 1.63555 5.46315 1.64643 5.47131C1.65459 5.48219 1.64371 5.49035 1.61923 5.49035C1.59475 5.49035 1.55667 5.51755 1.53491 5.55019C1.48867 5.61547 1.51043 5.67804 1.62467 5.79228C1.66275 5.83036 1.76884 5.9446 1.8586 6.04525C1.94836 6.14861 2.06261 6.27374 2.11157 6.32814C2.15781 6.38254 2.19861 6.43694 2.19861 6.45054C2.19861 6.46142 2.20949 6.46686 2.22037 6.4587C2.23397 6.45054 2.26389 6.48046 2.29109 6.5267C2.31829 6.57023 2.36726 6.63551 2.40534 6.67359C2.4407 6.70895 2.47062 6.75247 2.47062 6.76879C2.47062 6.78511 2.4815 6.79327 2.49782 6.78239C2.51142 6.77423 2.54134 6.80415 2.56582 6.8504C2.58758 6.89392 2.62022 6.932 2.63655 6.932C2.65015 6.932 2.67463 6.96464 2.68823 7.00272C2.70455 7.0408 2.72631 7.06256 2.74263 7.0544C2.75623 7.04624 2.76983 7.05168 2.76983 7.06528C2.76983 7.0816 2.81879 7.14689 2.87863 7.20673C2.93848 7.26929 2.98744 7.33729 2.98744 7.35905C2.98744 7.38081 2.9956 7.39442 3.0092 7.38897C3.02008 7.38353 3.08536 7.43794 3.15336 7.50866C3.22409 7.57938 3.27033 7.63922 3.25673 7.63922C3.24313 7.63922 3.28665 7.69091 3.35465 7.75347C3.42265 7.81603 3.47706 7.87859 3.47706 7.88947C3.47706 7.90307 3.53418 7.96836 3.6049 8.03364C3.67562 8.10164 3.72186 8.15604 3.71098 8.15604C3.69738 8.15604 3.75723 8.22404 3.84155 8.30565C4.04011 8.50149 4.09996 8.49877 4.31484 8.29477C4.38013 8.2322 4.44541 8.18324 4.45901 8.18324C4.47533 8.18324 4.48077 8.17236 4.47261 8.15876C4.46445 8.14788 4.48893 8.1234 4.52701 8.10436C4.60045 8.07172 4.59229 8.03364 4.50525 7.97108C4.47805 7.95203 4.45629 7.92211 4.45629 7.90579C4.45629 7.88947 4.40461 7.82691 4.34205 7.76979C4.27676 7.70995 4.22508 7.65282 4.22508 7.63922C4.22508 7.62562 4.16524 7.56034 4.0918 7.48962C3.97483 7.38081 3.95851 7.35089 3.95579 7.25025C3.95307 7.14689 3.96667 7.12241 4.10812 6.97824C4.19244 6.89392 4.27404 6.82319 4.28492 6.82319C4.29852 6.82319 4.35837 6.77151 4.41821 6.70623C4.47805 6.64367 4.56237 6.56751 4.60589 6.54031C4.65214 6.51038 4.70382 6.46414 4.72286 6.43694C4.7419 6.40974 4.7691 6.38798 4.78542 6.38798C4.79902 6.38798 4.86158 6.33358 4.92687 6.27102C4.98943 6.20573 5.06287 6.14317 5.09007 6.13501C5.11727 6.12413 5.13359 6.10509 5.12543 6.09421C5.11727 6.08061 5.14175 6.05613 5.17711 6.03981C5.2152 6.02077 5.24512 5.99629 5.24512 5.97997C5.24512 5.96637 5.28048 5.93644 5.32672 5.91196C5.37024 5.8902 5.4056 5.85484 5.40016 5.83852C5.39744 5.81948 5.41104 5.80588 5.42736 5.80316C5.4464 5.80316 5.51713 5.74604 5.58513 5.67531C5.65313 5.60459 5.70753 5.55291 5.70753 5.56107C5.70753 5.57739 5.7701 5.52571 5.85986 5.43595C5.89522 5.39787 5.93602 5.36794 5.9469 5.36794C5.95778 5.36522 6.02578 5.3081 6.09923 5.23738C6.17267 5.16666 6.24339 5.10953 6.25699 5.10953C6.27059 5.10953 6.27331 5.09593 6.26515 5.08233C6.25699 5.06601 6.26243 5.05513 6.27875 5.05513C6.29507 5.05513 6.34676 5.01977 6.39572 4.97353C6.44468 4.93001 6.54804 4.83209 6.62965 4.75592C6.71125 4.68248 6.78741 4.61992 6.79829 4.61992C6.80917 4.61992 6.87173 4.56552 6.93702 4.49751C7.12742 4.30439 7.33143 4.30439 7.43479 4.49479C7.46199 4.54376 7.51912 4.60632 7.55992 4.63624C7.60344 4.66344 7.64696 4.70968 7.65512 4.73416C7.66328 4.76136 7.68232 4.78312 7.69592 4.78312C7.70952 4.78312 7.71768 4.79128 7.71496 4.80216C7.70408 4.83481 7.93257 5.05513 7.97609 5.05513C7.99785 5.05513 8.03865 5.02793 8.06586 4.99257C8.09306 4.95721 8.15018 4.90553 8.19642 4.87561C8.40043 4.74232 8.47659 4.59 8.38139 4.49751C8.35419 4.47031 8.33243 4.44039 8.33243 4.42951C8.33243 4.42135 8.28618 4.36695 8.23178 4.30983C8.17466 4.25271 8.13658 4.19286 8.14746 4.17654C8.15562 4.16294 8.1529 4.1575 8.1393 4.16566C8.12298 4.17382 8.09034 4.14662 8.06314 4.10582C8.03322 4.06502 7.97609 4.0079 7.93257 3.97798C7.89177 3.95077 7.84825 3.90453 7.84009 3.87733C7.83193 3.85285 7.76393 3.76581 7.69048 3.68692C7.61704 3.61076 7.52184 3.5074 7.4756 3.45844C7.43207 3.40948 7.39399 3.35779 7.39399 3.34147C7.39399 3.32515 7.38311 3.31971 7.36679 3.32787C7.35319 3.33603 7.33959 3.32515 7.33959 3.30339C7.33959 3.28163 7.31239 3.24083 7.27703 3.21363C7.24167 3.18643 7.18999 3.12931 7.16006 3.08306C7.13286 3.03954 7.06214 2.96066 7.00774 2.90626C6.95062 2.85458 6.90438 2.80289 6.90438 2.78929C6.90438 2.77569 6.84453 2.70769 6.76837 2.63697C6.69493 2.56625 6.63237 2.50096 6.63237 2.49008C6.63237 2.4792 6.58068 2.41664 6.51812 2.35136C6.45284 2.2888 6.3658 2.18815 6.31955 2.13103C6.27603 2.07119 6.21075 2.00047 6.17811 1.97055C6.14275 1.94062 6.11555 1.90798 6.11555 1.8971C6.11555 1.85902 5.94962 1.70942 5.90882 1.70942C5.88434 1.70942 5.87618 1.7203 5.88434 1.73662ZM4.96495 3.75493C5.04383 3.77125 5.10095 3.79301 5.09551 3.80661C5.08735 3.81749 5.11999 3.83925 5.16351 3.85557C5.20976 3.86917 5.24512 3.89637 5.24512 3.90997C5.24512 3.92629 5.26416 3.93989 5.28592 3.93989C5.30768 3.93989 5.34304 3.97526 5.3648 4.01878C5.38928 4.0623 5.42192 4.1031 5.44096 4.11126C5.46 4.1167 5.49265 4.1711 5.51441 4.22822C5.53617 4.28535 5.56609 4.34791 5.58513 4.36695C5.63953 4.41863 5.66129 4.726 5.62593 4.92729C5.60689 5.02793 5.58513 5.10953 5.57425 5.10953C5.56337 5.10953 5.53345 5.15306 5.50897 5.20474C5.48449 5.25642 5.45184 5.29994 5.43552 5.29994C5.42192 5.29994 5.41104 5.3081 5.41376 5.3217C5.42464 5.35434 5.31856 5.47947 5.24512 5.51755C5.20704 5.53659 5.16351 5.56923 5.14175 5.58827C5.10367 5.62907 4.93503 5.68076 4.84526 5.68076C4.8099 5.68076 4.7827 5.69164 4.7827 5.70796C4.7827 5.72156 4.7147 5.73516 4.6331 5.73516C4.55149 5.73516 4.48349 5.72156 4.48349 5.70796C4.48349 5.69164 4.45357 5.68076 4.41549 5.68076C4.32844 5.68076 4.12172 5.59915 4.09452 5.55291C4.08364 5.53387 4.06188 5.51755 4.04556 5.51755C4.00747 5.51755 3.83067 5.34346 3.83067 5.30538C3.83067 5.28906 3.81163 5.26458 3.78987 5.2537C3.74362 5.2265 3.66746 5.02521 3.66746 4.93001C3.66746 4.89465 3.65658 4.86473 3.64026 4.86473C3.62394 4.86473 3.61306 4.79128 3.61306 4.6988C3.61306 4.59816 3.62394 4.54103 3.64026 4.55192C3.65658 4.5628 3.66746 4.53559 3.66746 4.49207C3.66746 4.38055 3.75178 4.17926 3.82251 4.12214C3.85515 4.09494 3.88235 4.05958 3.87691 4.04598C3.87419 4.02966 3.91499 3.9943 3.96667 3.96438C4.01835 3.93717 4.04283 3.91269 4.02107 3.90997C3.99931 3.90997 4.02651 3.89093 4.08364 3.86645C4.13804 3.84469 4.18428 3.81477 4.18428 3.80389C4.18428 3.79029 4.24956 3.76853 4.32844 3.75221C4.60045 3.69509 4.67662 3.69509 4.96495 3.75493Z" fill="currentColor"/>
        <path d="M4.34209 3.98304C4.26864 4.0048 4.21152 4.03472 4.21152 4.05104C4.21152 4.06464 4.17888 4.08912 4.1408 4.10272C4.10272 4.11904 4.06464 4.1544 4.05648 4.18433C4.04832 4.21425 4.03472 4.23329 4.02384 4.22513C4.01296 4.21969 3.97215 4.27953 3.93135 4.35841C3.86879 4.48082 3.85791 4.53794 3.85791 4.7365C3.85791 4.89699 3.86879 4.98131 3.89599 5.00579C3.91503 5.02755 3.93951 5.07108 3.95039 5.101C3.98031 5.19076 4.21424 5.41109 4.29857 5.42741C4.33937 5.43557 4.36929 5.45189 4.36113 5.46277C4.34209 5.49541 4.6549 5.52533 4.78274 5.50357C4.84258 5.49269 4.89155 5.47365 4.89155 5.46005C4.89155 5.44645 4.90787 5.43557 4.92963 5.43557C5.04115 5.43557 5.29684 5.20436 5.36484 5.04388C5.41924 4.91603 5.42196 4.54066 5.37028 4.39921C5.32676 4.27681 5.29412 4.23329 5.11187 4.0728C4.97043 3.94496 4.60322 3.90144 4.34209 3.98304ZM4.87523 4.17072C4.89699 4.19249 4.92419 4.21153 4.93779 4.21153C4.97043 4.21153 5.13635 4.38833 5.13635 4.42369C5.13635 4.44001 5.15812 4.47266 5.1826 4.49714C5.21524 4.5325 5.22884 4.58962 5.22612 4.72018C5.22612 4.81811 5.21252 4.90515 5.19892 4.91603C5.1826 4.92419 5.16084 4.95955 5.15268 4.99491C5.10099 5.1554 4.85619 5.29956 4.63314 5.29956C4.44001 5.29956 4.18704 5.16628 4.18432 5.0602C4.18432 5.04388 4.17344 5.02755 4.16256 5.02755C4.1272 5.02755 4.08096 4.91331 4.06192 4.78003C4.032 4.57058 4.12448 4.38289 4.35297 4.19521C4.41553 4.14352 4.46449 4.13536 4.65218 4.13264C4.78002 4.12992 4.8453 4.1408 4.87523 4.17072Z" fill="currentColor"/>
        <path d="M17.6272 5.75694C17.4749 5.90926 17.3498 6.02622 17.3498 6.01806C17.3498 6.01262 17.3335 6.02078 17.3117 6.03983C17.2899 6.05887 17.2791 6.08335 17.2872 6.09423C17.2927 6.10783 17.2845 6.11599 17.2682 6.11599C17.2491 6.11599 16.9635 6.38528 16.6344 6.71713L16.0305 7.31827L15.8537 7.29923C15.7558 7.28835 15.6661 7.26931 15.6497 7.25571C15.6361 7.24211 15.5491 7.23123 15.4539 7.23123C15.3206 7.23123 15.2825 7.23939 15.2825 7.27203C15.2825 7.29379 15.2961 7.31283 15.3097 7.31283C15.326 7.31283 15.3369 7.36723 15.3369 7.43523C15.3369 7.50324 15.326 7.55764 15.3124 7.55764C15.2988 7.55764 15.2662 7.6746 15.239 7.81605C15.2118 7.95749 15.1819 8.07446 15.171 8.07446C15.1628 8.07446 15.1302 8.1887 15.1057 8.32471C15.0785 8.46343 15.0459 8.58311 15.035 8.59127C15.0241 8.59944 15.0051 8.65656 14.9942 8.71912C14.9779 8.8252 14.9833 8.83608 15.0459 8.866C15.0867 8.88505 15.1112 8.90681 15.1057 8.91769C15.1003 8.92857 15.1248 8.95033 15.1601 8.96665C15.1982 8.98569 15.2281 9.01561 15.2281 9.03737C15.2281 9.05913 15.2499 9.08361 15.2771 9.09177C15.3016 9.10265 15.3614 9.15161 15.4049 9.20602C15.647 9.49707 15.6443 9.49435 15.8102 9.47531C15.8945 9.46443 15.9571 9.4481 15.9489 9.43722C15.9435 9.42634 16.0577 9.3937 16.2019 9.3665C16.3461 9.3393 16.4712 9.30938 16.4794 9.30122C16.5392 9.22506 17.1648 9.15977 17.2709 9.21962C17.3063 9.23866 17.3416 9.2577 17.3498 9.2577C17.377 9.26042 17.5021 9.39914 17.5348 9.46443C17.562 9.52155 17.5647 9.50251 17.5538 9.3393C17.5293 8.98841 17.5076 8.83608 17.4858 8.83608C17.4749 8.83608 17.4504 8.76536 17.4314 8.6756C17.396 8.50967 17.4096 8.45799 17.5076 8.34647C17.532 8.31927 17.5783 8.26214 17.6082 8.22134C17.6381 8.18326 17.6844 8.12614 17.7116 8.09894C17.736 8.06902 17.7578 8.03638 17.7578 8.02277C17.7578 8.00917 17.7904 7.97109 17.8285 7.94117C17.8693 7.90853 17.8884 7.88405 17.872 7.88405C17.8557 7.88405 17.8693 7.85413 17.902 7.81877C17.9346 7.78341 17.9863 7.72356 18.0162 7.68276C18.0461 7.64196 18.0924 7.58756 18.1196 7.56308C18.1441 7.5386 18.1658 7.50324 18.1658 7.4842C18.1658 7.46788 18.1876 7.43523 18.2175 7.41619C18.2447 7.39715 18.2882 7.34003 18.3127 7.29107C18.3372 7.24483 18.3698 7.20403 18.3834 7.20403C18.397 7.20403 18.4161 7.17955 18.4242 7.14962C18.4351 7.1197 18.4786 7.05442 18.5222 7.00818C18.5657 6.95922 18.601 6.90754 18.601 6.89122C18.601 6.87489 18.6255 6.84769 18.6554 6.82865C18.6854 6.80961 18.7098 6.77697 18.7098 6.75521C18.7098 6.73345 18.7343 6.70353 18.7642 6.68721C18.7942 6.67089 18.8186 6.64097 18.8186 6.61921C18.8186 6.59744 18.8431 6.5648 18.8703 6.54576C18.9002 6.524 18.9274 6.48864 18.9329 6.46688C18.941 6.42064 18.6745 6.12959 18.6201 6.12959C18.601 6.12687 18.5902 6.11327 18.5956 6.09423C18.5983 6.07519 18.5902 6.06159 18.5738 6.06159C18.5602 6.06159 18.5058 6.01806 18.4541 5.96638C18.3997 5.9147 18.3453 5.87118 18.329 5.87118C18.3127 5.87118 18.3073 5.85758 18.3154 5.84398C18.3236 5.82766 18.3181 5.81678 18.3018 5.81678C18.2855 5.81678 18.2121 5.75694 18.1386 5.68077C18.0625 5.60733 18.0026 5.56109 18.0026 5.57741C18.0026 5.59101 17.9809 5.57741 17.9537 5.54477L17.902 5.48221L17.6272 5.75694Z" fill="currentColor"/>
        <path d="M6.15621 5.58541C6.11813 5.62349 6.08821 5.64797 6.08821 5.63709C6.08821 5.62621 6.04469 5.66157 5.99301 5.71597C5.93861 5.77309 5.88148 5.81661 5.86788 5.81661C5.85156 5.81661 5.84612 5.8275 5.85428 5.8411C5.86244 5.8547 5.84884 5.87374 5.82164 5.8819C5.73732 5.91182 5.65028 5.97166 5.65844 5.99342C5.66388 6.0043 5.64212 6.02878 5.61492 6.0451C5.58771 6.06142 5.50883 6.13215 5.43811 6.20287C5.37011 6.27631 5.29938 6.33343 5.28306 6.33343C5.1933 6.33343 5.2205 6.52656 5.31298 6.56192C5.33747 6.57008 5.35107 6.58912 5.34291 6.60272C5.33203 6.61632 5.35923 6.6544 5.39731 6.68433C5.43811 6.71697 5.45443 6.74145 5.43539 6.74145C5.41635 6.74145 5.43267 6.76593 5.47347 6.79857C5.51155 6.82849 5.54419 6.86657 5.54419 6.88017C5.54419 6.89377 5.56595 6.92913 5.59315 6.95633C5.61764 6.98626 5.66388 7.04338 5.6938 7.08418C5.72372 7.12226 5.76996 7.17938 5.79716 7.20658C5.82164 7.2365 5.8434 7.26915 5.8434 7.28275C5.8434 7.29363 5.87332 7.33715 5.91141 7.37795C5.94677 7.41875 5.99301 7.47859 6.00933 7.51123C6.04197 7.57108 6.05829 7.59284 6.16709 7.71252C6.19702 7.74516 6.24054 7.80772 6.2623 7.85125C6.28406 7.89477 6.32214 7.93829 6.34662 7.94645C6.36838 7.95733 6.38742 7.97637 6.38742 7.99269C6.38742 8.01989 6.54247 8.24022 6.61863 8.32182C6.64039 8.3463 6.65943 8.37622 6.65943 8.39255C6.65943 8.40887 6.68663 8.43879 6.71655 8.46055C6.76824 8.49319 6.77096 8.51495 6.75463 8.61287C6.74375 8.67544 6.72743 8.72168 6.71383 8.71352C6.69479 8.69992 6.63767 8.96649 6.62407 9.12697C6.62135 9.16233 6.61047 9.18953 6.59959 9.18953C6.58871 9.18953 6.57783 9.25754 6.57783 9.33914C6.57783 9.48602 6.61591 9.53771 6.65127 9.43978C6.69479 9.3201 6.89064 9.18953 7.02936 9.18409C7.07833 9.18137 7.11369 9.17049 7.10553 9.15689C7.09737 9.14601 7.10553 9.13513 7.11913 9.13513C7.13545 9.13513 7.14905 9.14601 7.14905 9.15689C7.14905 9.17049 7.26873 9.20313 7.41562 9.23033C7.55978 9.25754 7.68491 9.28746 7.69307 9.29834C7.70123 9.30922 7.81819 9.33914 7.95148 9.36634C8.08748 9.39082 8.20173 9.42074 8.20989 9.43162C8.21805 9.4425 8.28333 9.46426 8.35677 9.48058C8.47102 9.50506 8.49278 9.50506 8.52814 9.46154C8.64782 9.31738 9.13472 8.83592 9.1592 8.83592C9.17552 8.83592 9.18912 8.81144 9.18912 8.78152C9.18912 8.7516 9.17824 8.72712 9.16736 8.72712C9.15376 8.72712 9.12112 8.61015 9.09392 8.46871C9.064 8.32726 9.03407 8.2103 9.02319 8.2103C9.01503 8.2103 8.98239 8.09605 8.95791 7.95733C8.93071 7.82133 8.89535 7.69892 8.87903 7.68804C8.86271 7.67716 8.84911 7.5738 8.84911 7.44867V7.22834L8.6723 7.23922C8.57438 7.24739 8.41389 7.26915 8.31597 7.28819L8.13644 7.32083L7.66859 6.85297C7.41018 6.59728 7.18713 6.38783 7.17353 6.38783C7.15721 6.38783 7.15177 6.37695 7.15993 6.36607C7.16537 6.35519 7.13273 6.31439 7.08649 6.27903C6.93688 6.15935 6.87704 6.09678 6.89608 6.08046C6.90424 6.06958 6.8988 6.06142 6.87976 6.06142C6.86344 6.06142 6.72471 5.93902 6.57239 5.78941C6.42006 5.63981 6.28134 5.5174 6.2623 5.5174C6.24326 5.5174 6.1943 5.54733 6.15621 5.58541Z" fill="currentColor"/>
        <path d="M10.4812 6.75504C10.348 6.78496 10.114 6.86384 10.114 6.87744C10.114 6.88832 10.0623 6.9128 9.99978 6.93184C9.9345 6.95088 9.87466 6.97537 9.86649 6.98897C9.85833 7.00257 9.82841 7.01889 9.79849 7.02705C9.67065 7.05697 9.47752 7.11681 9.502 7.12225C9.51832 7.12225 9.46664 7.14945 9.39048 7.17937C9.19463 7.25282 9.17015 7.31266 9.21367 7.57923C9.23271 7.69347 9.25719 7.79411 9.26807 7.80227C9.27895 7.81043 9.3116 7.92468 9.33608 8.06068C9.36328 8.19397 9.3932 8.31637 9.4068 8.33269C9.41768 8.34629 9.45032 8.46326 9.4748 8.5911C9.49928 8.71895 9.5292 8.83319 9.53736 8.84951C9.56456 8.89303 9.55912 8.93111 9.52648 8.94471C9.44216 8.98008 8.92806 9.46969 8.78934 9.64378C8.63701 9.83691 8.61797 9.85595 8.59893 9.82603C8.58533 9.8097 8.45749 9.77434 8.31332 9.74714C8.16644 9.71994 8.04675 9.6873 8.04675 9.67642C8.04675 9.66826 7.93795 9.63834 7.80194 9.61114C7.66866 9.58394 7.55713 9.55402 7.55713 9.54314C7.55713 9.51049 7.16 9.45337 7.05936 9.47241C6.97775 9.48873 6.96143 9.50505 6.91791 9.63834C6.89071 9.71722 6.86079 9.77978 6.84991 9.77434C6.84175 9.7689 6.81183 9.84235 6.78463 9.94027C6.75743 10.0355 6.72478 10.1144 6.7139 10.1144C6.70302 10.1144 6.67854 10.1688 6.6595 10.2368C6.64046 10.3048 6.6187 10.3592 6.60782 10.3592C6.59966 10.3592 6.56702 10.4408 6.53982 10.5414C6.5099 10.6448 6.47726 10.7345 6.46366 10.7427C6.45005 10.7509 6.46638 10.8053 6.4963 10.8651C6.55342 10.9685 6.67854 11.0664 6.75743 11.0664C6.78191 11.0664 6.79279 11.0773 6.78463 11.0909C6.77647 11.1045 6.82543 11.1344 6.89071 11.1616C6.95871 11.1861 7.01311 11.216 7.01311 11.2296C7.01311 11.2432 7.05664 11.2677 7.11104 11.284C7.16272 11.303 7.2008 11.3221 7.19264 11.3302C7.18448 11.3384 7.23616 11.3765 7.30688 11.4118C7.57889 11.5478 7.6469 11.5886 7.68498 11.6267C7.70674 11.6485 7.73394 11.6648 7.74754 11.6648C7.76114 11.6648 7.78834 11.6811 7.80738 11.7029C7.84002 11.7328 7.84274 11.7818 7.82098 11.9531C7.80738 12.0728 7.80466 12.3639 7.81282 12.6032L7.82914 13.0385L7.7421 13.0901C7.69314 13.1201 7.60338 13.1663 7.54353 13.1935C7.48369 13.2234 7.42929 13.2561 7.42113 13.2669C7.41297 13.2778 7.35857 13.3105 7.29872 13.3377C7.23888 13.3676 7.18176 13.403 7.17088 13.4193C7.16 13.4356 7.10288 13.4655 7.04032 13.4873C6.98047 13.5063 6.93151 13.5308 6.93151 13.5417C6.93151 13.5526 6.89615 13.577 6.84991 13.5961C6.80639 13.6151 6.76831 13.6369 6.76831 13.6478C6.76831 13.6559 6.7139 13.6858 6.6459 13.713C6.58062 13.7402 6.51806 13.7865 6.5099 13.8164C6.49902 13.8436 6.47998 13.8681 6.46638 13.8681C6.45277 13.8681 6.44189 13.9143 6.44189 13.9687C6.44189 14.0286 6.45277 14.0585 6.46366 14.0395C6.47726 14.0177 6.50446 14.0775 6.5371 14.1945C6.5643 14.2979 6.59694 14.3767 6.60782 14.3713C6.61598 14.3631 6.6323 14.3958 6.64318 14.4393C6.65134 14.4855 6.68942 14.5862 6.7275 14.6651C6.76287 14.7467 6.80367 14.85 6.81183 14.8963C6.82271 14.9452 6.83903 14.9833 6.84991 14.9833C6.86351 14.9833 6.89343 15.0432 6.92063 15.1166C6.95599 15.2173 6.98591 15.2553 7.03488 15.2689C7.1056 15.2853 7.50545 15.2336 7.52993 15.2009C7.54625 15.1819 7.92979 15.0921 7.99779 15.0921C8.02227 15.0921 8.04675 15.0812 8.05219 15.0704C8.05763 15.0568 8.19364 15.0214 8.35412 14.9888L8.65061 14.9289L8.69957 14.9888C8.72949 15.0241 8.75126 15.0676 8.75398 15.0867C8.75398 15.1057 8.76758 15.1139 8.78118 15.1057C8.7975 15.0976 8.80838 15.1003 8.80838 15.1139C8.80838 15.1302 8.87638 15.2091 8.9607 15.2934C9.04503 15.3777 9.10215 15.4457 9.09127 15.4457C9.07767 15.4457 9.10759 15.4702 9.15655 15.5001C9.20279 15.5301 9.24359 15.5654 9.24359 15.5763C9.24359 15.5899 9.28439 15.6225 9.33336 15.6497C9.38232 15.6742 9.4476 15.7314 9.47752 15.7749L9.53192 15.8538L9.47752 16.1176C9.4476 16.2645 9.41496 16.3896 9.40408 16.3978C9.3932 16.4059 9.36328 16.5202 9.33608 16.6562C9.3116 16.7895 9.27895 16.9064 9.26807 16.9146C9.25719 16.9228 9.23271 17.0071 9.21639 17.105C9.19735 17.2029 9.17015 17.2981 9.15383 17.3172C9.14023 17.3362 9.13751 17.3498 9.15383 17.3498C9.16743 17.3498 9.19191 17.3906 9.21095 17.4423C9.24087 17.5185 9.26535 17.5402 9.366 17.5647C9.434 17.581 9.4884 17.6055 9.4884 17.6164C9.4884 17.6273 9.56728 17.6599 9.66521 17.6898C9.76313 17.717 9.84201 17.7469 9.84201 17.7578C9.84201 17.7687 9.8937 17.7905 9.95898 17.8095C10.0215 17.8285 10.0977 17.8612 10.1303 17.8802C10.1603 17.8993 10.2609 17.9373 10.3561 17.9646C10.5193 18.0081 10.5329 18.0081 10.6145 17.9646C10.6689 17.9373 10.7152 17.8802 10.7369 17.8231C10.756 17.7741 10.7859 17.717 10.8022 17.698C10.8212 17.6789 10.8593 17.6109 10.8865 17.5457C10.9165 17.4831 10.9464 17.4314 10.9573 17.4314C10.9681 17.4314 10.9926 17.3933 11.0117 17.3498C11.0307 17.3036 11.0525 17.2682 11.0633 17.2682C11.0715 17.2682 11.1014 17.2138 11.1286 17.1458C11.1585 17.0778 11.1885 17.0234 11.1993 17.0234C11.2102 17.0234 11.2401 16.969 11.2673 16.901C11.2973 16.833 11.3272 16.7786 11.3353 16.7786C11.3435 16.7786 11.368 16.7432 11.387 16.697C11.4224 16.6208 11.4305 16.6154 11.5366 16.6371C11.5992 16.648 11.9038 16.6562 12.2139 16.6535H12.7797L12.8096 16.7432C12.826 16.7922 12.8477 16.833 12.8613 16.833C12.8722 16.833 12.9021 16.882 12.9266 16.9418C12.9511 17.0016 12.9783 17.0506 12.9919 17.0506C13.0028 17.0506 13.0354 17.1104 13.0653 17.1839C13.0925 17.26 13.1252 17.3144 13.136 17.3063C13.1469 17.3008 13.1714 17.3389 13.1877 17.3906C13.2041 17.4423 13.2285 17.4804 13.2394 17.4722C13.253 17.4668 13.2775 17.5103 13.2965 17.5701C13.3183 17.63 13.3482 17.6871 13.3645 17.698C13.3809 17.7089 13.4135 17.766 13.438 17.8258C13.4706 17.9129 13.5005 17.9428 13.5876 17.9727C13.6855 18.0081 13.7154 18.0081 13.8514 17.9646C13.9358 17.9373 14.0038 17.9074 14.0038 17.8938C14.0038 17.8829 14.0391 17.8666 14.0826 17.8585C14.1234 17.8503 14.2268 17.8122 14.3084 17.7741C14.39 17.7361 14.5151 17.6898 14.5831 17.6708C14.6511 17.6545 14.7028 17.63 14.6947 17.6191C14.6892 17.6082 14.7219 17.5919 14.7681 17.581C14.8606 17.5593 15.0102 17.4287 15.0102 17.3661C15.0102 17.309 14.9531 17.0479 14.9286 16.9826C14.8987 16.9092 14.8443 16.6807 14.8307 16.561C14.8225 16.5093 14.8089 16.4603 14.798 16.4522C14.779 16.4413 14.6811 16.0523 14.6756 15.968C14.6756 15.9517 14.6647 15.9354 14.6511 15.9354C14.6403 15.9354 14.6294 15.9054 14.6294 15.8674C14.6294 15.8293 14.6403 15.7994 14.6539 15.7994C14.6702 15.7994 14.7219 15.764 14.7708 15.7178C14.8198 15.6742 14.8688 15.6361 14.8796 15.6361C14.9041 15.6361 15.3638 15.1765 15.3638 15.152C15.3638 15.1411 15.4046 15.0894 15.4536 15.0323L15.5406 14.9344L15.799 14.986C15.9405 15.0132 16.0765 15.0486 16.0982 15.0622C16.1227 15.0731 16.2451 15.1057 16.3702 15.1329C16.4981 15.1601 16.6069 15.1928 16.6151 15.2009C16.6232 15.2118 16.7103 15.2363 16.8136 15.2553C16.9143 15.2744 16.9959 15.2989 16.9959 15.3125C16.9959 15.3261 17.0149 15.3369 17.0394 15.3369C17.0611 15.3369 17.072 15.3233 17.0639 15.3097C17.0557 15.2934 17.072 15.2825 17.1047 15.2825C17.1863 15.2825 17.257 15.2037 17.2924 15.0704C17.3114 15.0078 17.3332 14.9561 17.344 14.9561C17.3576 14.9561 17.3903 14.88 17.4175 14.7848C17.4447 14.6923 17.4746 14.6107 17.4855 14.6025C17.51 14.5862 17.5943 14.3441 17.5943 14.2897C17.5943 14.2707 17.6079 14.2489 17.6215 14.2435C17.6378 14.238 17.665 14.1809 17.6868 14.1129C17.7276 13.9742 17.7004 13.8137 17.6351 13.8137C17.6133 13.8137 17.5943 13.8028 17.5943 13.7919C17.5943 13.7783 17.5508 13.7457 17.4991 13.7158C17.4474 13.6886 17.4039 13.6586 17.4039 13.6478C17.4039 13.6396 17.3549 13.6151 17.2951 13.5961C17.2325 13.577 17.1972 13.5526 17.2135 13.5417C17.2298 13.5308 17.1917 13.509 17.1319 13.49C17.0693 13.471 17.0122 13.4383 17.004 13.4166C16.9959 13.3975 16.9795 13.3839 16.9687 13.3921C16.9578 13.4002 16.9333 13.3866 16.9143 13.3649C16.8952 13.3431 16.8653 13.3241 16.8435 13.3241C16.8245 13.3241 16.7919 13.3077 16.7728 13.2887C16.7538 13.2697 16.6858 13.2316 16.6232 13.2044C16.5579 13.1745 16.5062 13.1445 16.5062 13.1337C16.5062 13.1255 16.4627 13.101 16.411 13.0793C16.3403 13.0521 16.3158 13.0249 16.3158 12.9786C16.3158 12.9433 16.3294 12.9161 16.343 12.9161C16.3594 12.9161 16.3702 12.7229 16.3702 12.3884C16.3702 12.0647 16.3594 11.8525 16.343 11.8416C16.275 11.7981 16.3186 11.7219 16.4382 11.6784C16.5035 11.6512 16.5552 11.624 16.5498 11.6131C16.5443 11.605 16.5906 11.5723 16.6504 11.5424C16.713 11.5125 16.7701 11.4826 16.7783 11.4744C16.7864 11.4662 16.8408 11.4363 16.9007 11.4064C16.9605 11.3765 17.0203 11.3357 17.0312 11.3166C17.0421 11.3003 17.0693 11.284 17.0911 11.284C17.1101 11.284 17.1455 11.2677 17.1645 11.2486C17.1836 11.2296 17.2516 11.1915 17.3168 11.1643C17.3794 11.1344 17.4311 11.1045 17.4311 11.0963C17.4311 11.0881 17.4882 11.0555 17.5562 11.0256C17.6405 10.9875 17.684 10.9521 17.6949 10.9032C17.7031 10.8651 17.7221 10.8189 17.7385 10.7998C17.7548 10.7781 17.7548 10.7672 17.7385 10.7672C17.7221 10.7672 17.7031 10.7182 17.6922 10.6611C17.684 10.6013 17.6596 10.536 17.6405 10.5169C17.6215 10.4979 17.5834 10.4054 17.5562 10.3102C17.5263 10.2177 17.4964 10.1416 17.4855 10.1416C17.4746 10.1416 17.442 10.0627 17.4148 9.96747C17.3876 9.86955 17.3576 9.7961 17.3468 9.80426C17.3359 9.8097 17.3196 9.7825 17.3114 9.73898C17.2488 9.48057 17.1727 9.43705 16.8735 9.49145C16.7647 9.51049 16.6776 9.53498 16.6858 9.54586C16.6912 9.55674 16.5797 9.58666 16.4382 9.61114C16.2968 9.63834 16.1798 9.66826 16.1798 9.67914C16.1798 9.6873 16.0574 9.71994 15.9078 9.74714C15.7609 9.77434 15.644 9.80698 15.6521 9.82059C15.6603 9.83147 15.6358 9.84235 15.5977 9.84235C15.5597 9.84235 15.527 9.83147 15.527 9.81787C15.527 9.80426 15.4672 9.7281 15.391 9.64922C15.3176 9.57034 15.255 9.49417 15.255 9.48329C15.255 9.45337 14.983 9.18952 14.9504 9.18952C14.9368 9.18952 14.9313 9.17864 14.9395 9.16504C14.9476 9.15416 14.9232 9.12968 14.8878 9.11336C14.8497 9.09432 14.8198 9.07256 14.8198 9.05896C14.8198 9.04808 14.7763 9.01544 14.7246 8.98824C14.6675 8.9556 14.6294 8.91479 14.6294 8.88487C14.6294 8.85495 14.6403 8.83863 14.6511 8.84679C14.6647 8.85495 14.6974 8.74615 14.7246 8.6047C14.7545 8.46326 14.7844 8.34629 14.7926 8.34629C14.8035 8.34629 14.8334 8.22661 14.8606 8.07972C14.8878 7.93556 14.9177 7.81043 14.9286 7.80227C14.9531 7.78323 15.0102 7.51122 15.0102 7.4133C15.0075 7.29362 14.964 7.24465 14.8007 7.18753C14.7246 7.16033 14.6647 7.13041 14.6702 7.12225C14.6756 7.11409 14.6022 7.08417 14.5043 7.05697C14.4091 7.02977 14.3302 6.99713 14.3302 6.98625C14.3302 6.96721 14.2023 6.92368 14.1316 6.92096C14.1207 6.91824 14.1017 6.90464 14.0908 6.89104C14.0582 6.8448 13.8079 6.76864 13.6909 6.76864C13.5577 6.77136 13.4761 6.8312 13.4325 6.96449C13.4162 7.02161 13.3917 7.06785 13.3809 7.06785C13.37 7.06785 13.3373 7.11953 13.3074 7.18209C13.2802 7.24737 13.2421 7.30994 13.2231 7.32082C13.2041 7.3317 13.1877 7.3589 13.1877 7.38066C13.1877 7.3997 13.1714 7.43506 13.1524 7.4541C13.1333 7.47314 13.0925 7.54115 13.0653 7.60371C13.0381 7.66899 13.0055 7.72067 12.9946 7.72067C12.9837 7.72067 12.9565 7.76963 12.932 7.82948C12.9076 7.88932 12.8776 7.93828 12.864 7.93828C12.8504 7.93828 12.826 7.97908 12.8096 8.02532L12.7797 8.11509H12.1024H11.4224L11.387 8.04436C11.368 8.00628 11.3217 7.91652 11.2864 7.84036C11.251 7.76691 11.2075 7.69891 11.1885 7.68803C11.1721 7.67715 11.1422 7.62003 11.1205 7.55747C11.1014 7.49762 11.0742 7.44866 11.0606 7.44866C11.047 7.44866 11.0225 7.41058 11.0089 7.36706C10.9926 7.32082 10.9709 7.28546 10.96 7.28546C10.9464 7.28546 10.9165 7.23649 10.8893 7.17665C10.862 7.11681 10.8321 7.06785 10.8185 7.06785C10.8076 7.06785 10.7777 7.00529 10.7532 6.92912C10.7288 6.85296 10.6988 6.79856 10.6907 6.80672C10.6825 6.81488 10.6635 6.81216 10.6472 6.79856C10.6118 6.77136 10.5193 6.74688 10.4812 6.75504ZM12.4696 9.49145C12.6328 9.50777 12.7716 9.52954 12.7797 9.54041C12.7879 9.5513 12.8804 9.58394 12.9837 9.61114C13.0898 9.63834 13.1796 9.66826 13.1877 9.67914C13.1959 9.6873 13.2557 9.71178 13.321 9.73354C13.3863 9.7553 13.457 9.78794 13.4761 9.80698C13.4951 9.82874 13.5549 9.86139 13.6093 9.88315C13.661 9.90763 13.7045 9.93755 13.7045 9.95115C13.7045 9.96747 13.7372 9.99195 13.7753 10.0056C13.8134 10.0219 13.9058 10.0899 13.9793 10.1633C14.0527 10.234 14.1262 10.2912 14.1398 10.2912C14.1561 10.2912 14.1914 10.3265 14.2159 10.3728C14.2404 10.4163 14.2894 10.4761 14.3247 10.5033C14.3574 10.5305 14.3846 10.5686 14.3846 10.5849C14.3846 10.604 14.4091 10.6339 14.439 10.6529C14.4689 10.672 14.4934 10.7046 14.4934 10.7264C14.4934 10.7481 14.5097 10.7753 14.5287 10.7862C14.5478 10.7971 14.5804 10.8488 14.5995 10.895C14.6212 10.944 14.6457 10.9848 14.6593 10.9848C14.6702 10.9848 14.7028 11.0528 14.7273 11.1344C14.7545 11.216 14.7844 11.284 14.7926 11.284C14.8035 11.284 14.8334 11.3792 14.8633 11.4934C14.8905 11.6104 14.9232 11.7111 14.9313 11.7192C14.9803 11.7546 15.0075 12.3584 14.9803 12.6957C14.964 12.8834 14.9422 13.0439 14.9313 13.0521C14.9232 13.0602 14.8905 13.1609 14.8633 13.2751C14.8334 13.3921 14.8035 13.4873 14.7926 13.4873C14.7844 13.4873 14.7545 13.5471 14.7273 13.6233C14.7001 13.6994 14.6702 13.7593 14.6593 13.7593C14.6511 13.7593 14.6239 13.8001 14.6022 13.8463C14.5641 13.9388 14.5451 13.966 14.4526 14.0721C14.3927 14.1374 14.3383 14.2163 14.3139 14.2707C14.2839 14.3305 14.1561 14.4529 14.0772 14.491C14.0364 14.5127 14.0146 14.5372 14.0282 14.5481C14.0446 14.5563 14.0146 14.5862 13.963 14.6134C13.9113 14.6433 13.8678 14.676 13.8678 14.6896C13.8678 14.7004 13.8242 14.7331 13.7726 14.7576C13.7209 14.782 13.6773 14.812 13.6773 14.8201C13.6773 14.8283 13.6338 14.8528 13.5821 14.8745C13.5305 14.8963 13.4869 14.9208 13.4869 14.9316C13.4869 14.9398 13.4298 14.9697 13.3591 14.9969C13.2857 15.0241 13.2231 15.054 13.2149 15.0622C13.1959 15.0867 12.9103 15.1737 12.8532 15.1737C12.8314 15.1737 12.8069 15.1846 12.8015 15.1982C12.7906 15.2309 12.3527 15.2825 12.0752 15.2825C11.7923 15.2825 11.3598 15.2309 11.3816 15.1982C11.3897 15.1846 11.3707 15.1737 11.3435 15.1737C11.2782 15.1737 11.0035 15.0894 10.9845 15.0622C10.9763 15.054 10.9301 15.035 10.8784 15.0241C10.8294 15.0132 10.7641 14.9806 10.7369 14.9534C10.7043 14.9208 10.6852 14.9153 10.6852 14.9371C10.6852 14.9534 10.6716 14.948 10.6553 14.9235C10.6417 14.8963 10.6118 14.8745 10.59 14.8745C10.5683 14.8745 10.5411 14.8582 10.5302 14.8364C10.5193 14.8174 10.4676 14.7793 10.4214 14.7548C10.3724 14.7304 10.3316 14.6977 10.3316 14.6841C10.3316 14.6705 10.3072 14.6542 10.2799 14.6433C10.2228 14.627 9.84201 14.2598 9.84201 14.2217C9.84201 14.2108 9.81209 14.1673 9.77401 14.1238C9.73593 14.0803 9.68969 14.0259 9.67065 14.0041C9.64889 13.9823 9.61897 13.9225 9.59993 13.8735C9.57816 13.8273 9.55368 13.7865 9.54008 13.7865C9.52104 13.7865 9.48024 13.6967 9.4748 13.645C9.4748 13.6369 9.46664 13.6178 9.45576 13.607C9.44216 13.5961 9.434 13.5689 9.434 13.5498C9.434 13.5281 9.41768 13.4954 9.39864 13.4737C9.37688 13.4546 9.34424 13.3594 9.3252 13.2642C9.30615 13.169 9.27895 13.0874 9.26807 13.0793C9.23815 13.0575 9.18919 12.606 9.18919 12.3557C9.18919 12.1245 9.23815 11.6866 9.26807 11.6648C9.27623 11.6566 9.30615 11.5669 9.33336 11.4608C9.36056 11.3574 9.39048 11.265 9.40408 11.2568C9.41496 11.2486 9.4476 11.1861 9.4748 11.1126C9.502 11.0419 9.53192 10.9848 9.54552 10.9848C9.5564 10.9848 9.57272 10.9494 9.5836 10.9086C9.59177 10.8678 9.62713 10.8025 9.65977 10.7617C9.69241 10.7237 9.74409 10.6611 9.77673 10.6203C9.93722 10.419 9.99978 10.3456 10.0814 10.2612C10.1303 10.2096 10.1793 10.1688 10.1902 10.1688C10.2011 10.1688 10.2582 10.1252 10.318 10.0736C10.3779 10.0219 10.4432 9.97835 10.4622 9.97835C10.4812 9.97835 10.4921 9.96747 10.484 9.95387C10.4758 9.94299 10.5248 9.90763 10.59 9.88043C10.658 9.85323 10.7124 9.82331 10.7124 9.8097C10.7124 9.79882 10.7804 9.7689 10.862 9.74442C10.9437 9.71722 11.0117 9.6873 11.0117 9.67642C11.0117 9.66554 11.0525 9.6465 11.1014 9.63562C11.1477 9.62474 11.1939 9.61386 11.2021 9.61114C11.2102 9.60842 11.2619 9.59754 11.319 9.58666C11.3734 9.57306 11.4197 9.5513 11.4197 9.53226C11.4197 9.51593 11.4333 9.52137 11.4469 9.54314C11.4632 9.57034 11.4741 9.57306 11.4741 9.54858C11.4741 9.53226 11.4822 9.51865 11.4958 9.52137C11.5067 9.52137 11.5339 9.51593 11.5557 9.50777C11.5965 9.49145 11.7597 9.47785 12.0344 9.46697C12.1106 9.46425 12.3064 9.47513 12.4696 9.49145Z" fill="currentColor"/>
        <path d="M11.7216 10.672C11.2374 10.778 10.775 11.1398 10.5546 11.5859C10.2962 12.1109 10.2962 12.6331 10.5546 13.1581C10.7777 13.6097 11.2374 13.966 11.7352 14.0721C12.9619 14.3332 14.0608 13.2343 13.7997 12.0075C13.6039 11.0772 12.6573 10.4707 11.7216 10.672Z" fill="currentColor"/>
    </symbol>
    <symbol id="nav-remakes" xmlns="http://www.w3.org/2000/svg" viewBox="0 0 18 18" fill="none">
        <path d="M13.5757 0.0604324C13.001 0.187565 12.4315 0.513023 11.9636 0.975786C11.6178 1.3165 11.5111 1.46906 11.3178 1.86571C10.9669 2.59291 10.8601 3.24892 10.9873 3.96086L11.0585 4.35243L7.70216 7.70364L4.34078 11.0498L4.01023 10.9887C3.25761 10.8514 2.59143 10.9481 1.8744 11.304C0.953964 11.7617 0.282705 12.6211 0.0640367 13.6331C-0.0986929 14.401 0.0640367 15.5553 0.379325 15.8554C0.475946 15.9469 0.567482 15.9774 0.735297 15.9774C0.95905 15.9774 0.964135 15.9723 1.8744 15.0621L2.78467 14.1518L2.95249 14.2993C3.04402 14.3806 3.28812 14.6095 3.49153 14.8078L3.85767 15.1638L2.97283 16.0537C2.48464 16.5419 2.05747 17.0097 2.02696 17.0911C1.82355 17.6352 2.44904 17.9607 3.67969 17.9607C4.37129 17.9607 4.7476 17.8641 5.32732 17.5437C5.75449 17.3047 6.32913 16.7555 6.56814 16.3537C6.96988 15.6723 7.13261 14.8078 7.01056 14.0196L6.94445 13.6026L10.2906 10.2565L13.6367 6.91033L13.8198 6.96627C13.9215 6.99678 14.2775 7.02221 14.6131 7.02221C15.1369 7.02221 15.2843 7.00187 15.6352 6.88491C17.3439 6.32044 18.3406 4.49481 17.8931 2.75564C17.7711 2.27254 17.6846 2.13523 17.4507 2.03861C17.1507 1.91148 17.0286 1.99285 16.0878 2.93363C15.6149 3.40656 15.2081 3.79813 15.1877 3.79813C15.1674 3.79813 14.9182 3.57438 14.6385 3.30485L14.1249 2.81158L15.0555 1.88097C15.981 0.955444 15.9861 0.950359 15.9861 0.726606C15.9861 0.416403 15.8386 0.274014 15.381 0.131626C14.9182 -0.0107632 14.0486 -0.04636 13.5757 0.0604324ZM13.8096 1.60128C13.0977 2.32848 12.9756 2.59291 13.1231 3.10653C13.2095 3.39639 14.3995 4.62195 14.7656 4.79485C15.3149 5.0542 15.5691 4.95758 16.3268 4.21512C16.8862 3.66591 16.9269 3.64048 16.9269 3.77779C16.9218 4.24055 16.6675 4.80502 16.2811 5.22201C15.6657 5.88819 14.608 6.15262 13.7689 5.85259C13.3011 5.68478 13.5503 5.47119 9.51761 9.50384C6.65459 12.3669 5.83585 13.2161 5.81043 13.3331C5.79517 13.4195 5.83077 13.6636 5.88671 13.8925C6.06469 14.5637 6.00367 15.0977 5.67821 15.7079C5.32732 16.3639 4.47299 16.9131 3.78648 16.9182C3.64917 16.9182 3.6746 16.8775 4.22381 16.3181C4.81371 15.713 4.92559 15.5401 4.92559 15.1943C4.92559 14.8434 4.80862 14.6603 4.13736 13.9789C3.44576 13.267 3.24235 13.1246 2.87621 13.0737C2.51515 13.0229 2.24055 13.1805 1.60997 13.8009C1.09127 14.3145 1.06076 14.3349 1.06076 14.1925C1.06076 13.9535 1.18789 13.5467 1.36587 13.211C1.68625 12.616 2.34225 12.1584 3.06436 12.0312C3.43559 11.9702 3.69494 11.9855 4.21364 12.1228C4.39671 12.1685 4.60521 12.1889 4.67132 12.1736C4.7476 12.1533 6.3037 10.6379 8.50055 8.44101C12.0298 4.90672 12.1976 4.72874 12.1976 4.55584C12.1976 4.45413 12.162 4.27615 12.1264 4.15918C11.7755 3.17264 12.2637 1.87589 13.1689 1.38261C13.4994 1.20462 13.9469 1.05715 14.1757 1.05715L14.3537 1.05206L13.8096 1.60128Z" fill="currentColor"/>
        <path d="M7.89544 0.970818C7.4276 1.18948 7.11231 1.60139 7.03094 2.10484C7.00043 2.293 6.98009 2.31842 6.78685 2.37436C6.67497 2.40996 6.38002 2.52692 6.14101 2.63371L5.70368 2.83204L5.33754 2.64388C4.85952 2.3947 4.45269 2.38453 3.98485 2.59303C3.63396 2.75576 2.82031 3.54398 2.64233 3.88978C2.38298 4.39323 2.4084 5.01363 2.70335 5.45605L2.85591 5.68489L2.67284 6.07646C2.57622 6.29004 2.44909 6.59008 2.39823 6.73246C2.32704 6.95113 2.28636 7.00198 2.19482 7.00198C1.97615 7.00198 1.52356 7.21048 1.32015 7.40881C0.913324 7.80546 0.882812 7.91734 0.882812 8.98525C0.882812 9.86501 0.887898 9.94129 0.994689 10.1294C1.2337 10.5566 1.21336 10.5464 1.62527 10.3634C2.01175 10.1905 2.71352 10.0023 2.98304 10.0023C3.06949 10.0023 3.14577 9.97689 3.14577 9.95146C3.14577 9.92095 2.95253 9.90061 2.66267 9.90061C2.21516 9.90061 2.16431 9.89044 2.05243 9.77347C1.93038 9.65651 1.9253 9.626 1.9253 8.99542C1.9253 8.35468 1.93038 8.33433 2.05752 8.2072C2.17956 8.08515 2.23042 8.0699 2.67792 8.05973L3.16103 8.04447L3.23222 7.73935C3.38478 7.04775 3.65939 6.39175 4.04587 5.7866L4.22386 5.51199L3.89331 5.17636C3.51191 4.78479 3.46615 4.678 3.57802 4.43899C3.67973 4.22541 4.30522 3.61517 4.49338 3.54398C4.70187 3.46262 4.81375 3.51855 5.18498 3.8847L5.52569 4.21524L5.81047 4.03217C6.41562 3.64569 7.05128 3.38125 7.74797 3.22361L8.05309 3.15241L8.06834 2.66931C8.07851 2.22689 8.09377 2.17095 8.20565 2.05399C8.35821 1.90143 8.52602 1.86583 9.05489 1.86583C9.49223 1.86583 9.76683 1.95228 9.85328 2.10992C9.8838 2.17095 9.90922 2.42013 9.90922 2.67439C9.90922 2.949 9.92956 3.13716 9.96008 3.13716C9.99059 3.13716 10.0109 3.05071 10.0109 2.94391C10.0109 2.66422 10.1889 1.99805 10.3669 1.61665C10.5144 1.30136 10.5195 1.28611 10.433 1.18948C10.3822 1.13863 10.2499 1.04201 10.1381 0.980988C9.95499 0.884367 9.83803 0.874196 9.04472 0.85894C8.19548 0.843684 8.14462 0.84877 7.89544 0.970818Z" fill="currentColor"/>
        <path d="M16.2504 7.663C16.0012 7.7698 15.6351 7.88167 15.4367 7.91218C14.8062 8.02406 14.796 8.03932 15.3249 8.06983C15.6046 8.08508 15.8639 8.1156 15.9046 8.14102C16.0368 8.22747 16.1131 8.52242 16.1131 8.97501C16.1131 9.78358 16.0114 9.90054 15.3045 9.90054H14.8418L14.8113 10.0378C14.6384 10.8261 14.2875 11.6956 13.9264 12.2143L13.7637 12.4534L14.0942 12.7941C14.4655 13.1653 14.5316 13.3229 14.4197 13.5416C14.3078 13.7501 13.6721 14.3603 13.4992 14.4265C13.2857 14.5078 13.1738 14.4519 12.8026 14.0857L12.4618 13.7552L12.2228 13.9179C11.8313 14.1874 10.9769 14.5638 10.4938 14.6858C10.2447 14.7468 10.0056 14.8028 9.97513 14.8129C9.92936 14.8231 9.90902 14.9655 9.90902 15.291C9.90902 16.0029 9.79206 16.1046 8.9835 16.1046C8.49531 16.1046 8.22579 16.0283 8.13425 15.8605C8.10374 15.7995 8.07831 15.5401 8.07323 15.2808C8.06814 14.7672 8.0478 14.7926 7.90541 15.5096C7.86473 15.7334 7.74777 16.0944 7.65115 16.3233C7.44774 16.781 7.44265 16.7555 7.84947 16.9844C8.03255 17.0861 8.13934 17.0962 8.93773 17.1115L9.81749 17.1318L10.1429 16.9691C10.3413 16.8725 10.5243 16.7352 10.626 16.608C10.7989 16.3894 10.9769 15.9724 10.9769 15.7842C10.9769 15.6876 11.0227 15.652 11.2566 15.5757C11.4092 15.53 11.7041 15.413 11.9126 15.3164L12.294 15.1435L12.6551 15.3316C12.9755 15.4944 13.0619 15.5147 13.3823 15.5147C13.662 15.5147 13.8044 15.4893 13.9925 15.3977C14.2926 15.2503 15.0299 14.5638 15.2638 14.2078C15.6096 13.6891 15.6249 13.0789 15.2994 12.5551L15.1469 12.3008L15.3198 11.9143C15.4215 11.7007 15.5385 11.4007 15.5842 11.2481C15.6605 11.0142 15.6961 10.9685 15.7876 10.9685C15.9809 10.9685 16.4284 10.7803 16.6318 10.6125C16.7386 10.5209 16.8911 10.3124 16.9878 10.1141L17.1556 9.77341V8.98518C17.1505 8.27833 17.1403 8.17154 17.0335 7.93253C16.9725 7.79014 16.8708 7.62741 16.8098 7.57656C16.6979 7.47993 16.6928 7.47993 16.2504 7.663Z" fill="currentColor"/>
    </symbol>
    <symbol id="nav-catalog" xmlns="http://www.w3.org/2000/svg" viewBox="0 0 24 18" fill="none">
        <path d="M1.38712 0.0546722C1.31026 0.111301 1.31026 0.204335 1.29813 4.0996L1.29004 8.08789H1.67431H2.05857V5.80251V3.51713H11.5237H20.9888V4.69016V5.86318H21.3731H21.7574L21.7493 4.3342L21.7371 2.80927L16.5313 2.79713C12.636 2.79309 11.3214 2.77691 11.3214 2.7405C11.3214 2.71623 11.1313 2.35623 10.9008 1.94365C10.6702 1.53107 10.3507 0.952646 10.1889 0.665456C10.0271 0.374222 9.86932 0.107256 9.83292 0.0668077C9.77629 0.00208855 9.5255 -0.00195599 5.61811 -0.00195599C2.09902 -0.00195599 1.45588 0.00613308 1.38712 0.0546722Z" fill="currentColor"/>
        <path d="M13.7492 6.48595C13.5146 6.54662 13.2962 6.68011 13.1586 6.84595C13.098 6.91876 12.8917 7.14932 12.6975 7.35965C12.5034 7.56999 12.2121 7.89358 12.0503 8.07561C11.8764 8.26976 11.6742 8.44774 11.5488 8.52055L11.3425 8.63381L5.96272 8.65403L0.582972 8.67425L0.41713 8.76324C0.0894914 8.93717 -0.0439911 9.20009 0.0126378 9.55605C0.053087 9.7947 0.287693 11.3399 0.760949 14.4787C0.987464 15.9592 1.18971 17.2535 1.21398 17.3547C1.27061 17.5974 1.47286 17.8077 1.76004 17.9169C1.98252 17.9978 2.01083 17.9978 11.5245 17.9978C21.0341 17.9978 21.0665 17.9978 21.2889 17.9169C21.5195 17.8279 21.7379 17.6418 21.8067 17.472C21.8431 17.3789 22.0737 15.8985 22.3083 14.2765C22.3649 13.8882 22.4336 13.4311 22.466 13.2652C22.4984 13.0994 22.6399 12.1691 22.7856 11.2023C22.9312 10.2356 23.1253 8.94526 23.2143 8.33853C23.3276 7.59426 23.3721 7.18168 23.3559 7.07246C23.3195 6.86617 23.1294 6.6437 22.8907 6.53449C22.7087 6.44955 22.6723 6.44955 18.32 6.44146C14.9384 6.43741 13.8908 6.4455 13.7492 6.48595ZM18.9955 10.6441C19.0885 10.7048 19.2139 10.8181 19.2746 10.899C19.4 11.0648 19.4283 11.1578 19.942 13.2046C20.2696 14.4909 20.3101 14.6931 20.2939 14.9439C20.2777 15.312 20.128 15.5425 19.8085 15.7043C19.5577 15.8297 19.1532 15.854 18.9227 15.7569C18.7406 15.6801 18.5465 15.4819 18.4454 15.2715C18.324 15.0248 18.3361 14.9439 18.502 14.8428C18.5829 14.7942 18.7002 14.6607 18.7649 14.5475C19.1128 13.9367 18.8377 13.2207 18.1905 13.0428C17.9681 12.9861 17.8912 12.9821 17.7132 13.0185C17.3613 13.0954 17.0944 13.3057 16.9851 13.5888C16.8881 13.8396 16.9123 13.8356 16.1802 13.8234L15.5087 13.8113L15.4076 13.601C15.2782 13.334 15.2094 13.2612 14.9586 13.1237C14.3681 12.8041 13.5793 13.1763 13.4822 13.8234C13.4216 14.2279 13.5389 14.5353 13.8625 14.8266L14.0485 14.9965L13.9757 15.1866C13.8139 15.6073 13.5146 15.8135 13.0616 15.8135C12.4265 15.8135 12.0948 15.4819 12.0908 14.8468C12.0908 14.6041 12.1595 14.2805 12.4791 13.0266C13.013 10.9273 12.9847 11.0001 13.2314 10.7736C13.5186 10.5026 13.3407 10.5147 16.2206 10.5268L18.8296 10.5349L18.9955 10.6441ZM14.7928 13.423C14.8737 13.4675 14.9748 13.5363 15.0112 13.5848C15.0921 13.6819 15.1568 13.9043 15.1447 14.0378C15.1407 14.0904 15.1326 14.1673 15.1285 14.2037C15.1245 14.2967 14.898 14.5475 14.7564 14.6243C14.4773 14.7659 14.0364 14.6284 13.9029 14.3574C13.822 14.1996 13.8099 13.9043 13.8705 13.7264C13.8948 13.6616 13.9919 13.5484 14.0849 13.4796C14.2912 13.3219 14.5541 13.3016 14.7928 13.423ZM18.1905 13.4028C18.5788 13.605 18.6921 14.1511 18.409 14.4504C18.2552 14.6122 18.1096 14.681 17.9155 14.681C17.6849 14.681 17.4988 14.592 17.3654 14.418C17.2683 14.2886 17.2481 14.2279 17.2481 14.0095C17.2481 13.7264 17.3168 13.5969 17.5514 13.4351C17.7092 13.33 18.0206 13.3138 18.1905 13.4028Z" fill="currentColor"/>
        <path d="M17.9803 11.1336C17.8953 11.1983 17.8832 11.3763 17.956 11.4653C18.0288 11.5543 18.2675 11.5422 18.3201 11.4491C18.3807 11.3318 18.3686 11.2509 18.2796 11.1619C18.1866 11.0689 18.0814 11.0568 17.9803 11.1336Z" fill="currentColor"/>
        <path d="M13.8499 11.2508C13.8418 11.3034 13.8257 11.3965 13.8216 11.4652C13.8095 11.5663 13.7893 11.5866 13.6881 11.5987C13.4212 11.623 13.3848 11.6432 13.3848 11.7686C13.3848 11.9021 13.4778 11.9708 13.6598 11.9708C13.7893 11.9708 13.8297 12.0275 13.8297 12.2095C13.8297 12.3268 13.8944 12.4158 13.9753 12.4158C14.0724 12.4158 14.1533 12.2863 14.1533 12.1286C14.1533 11.9789 14.1614 11.9708 14.2706 11.9708C14.4769 11.9708 14.5982 11.9021 14.5982 11.7929C14.5982 11.6715 14.4971 11.6068 14.2989 11.6068C14.1573 11.6068 14.1533 11.6027 14.1533 11.4612C14.1533 11.267 14.0886 11.1618 13.9713 11.1618C13.9025 11.1618 13.8661 11.1902 13.8499 11.2508Z" fill="currentColor"/>
        <path d="M17.4702 11.6434C17.3771 11.8214 17.4702 12.0115 17.6522 12.0115C17.7816 12.0115 17.8706 11.9144 17.8747 11.7647C17.8747 11.6272 17.8059 11.5665 17.6441 11.5665C17.5551 11.5665 17.4985 11.5908 17.4702 11.6434Z" fill="currentColor"/>
        <path d="M18.4249 11.6312C18.344 11.7121 18.344 11.8051 18.4249 11.9224C18.4897 12.0195 18.6029 12.0357 18.7283 11.9709C18.8173 11.9224 18.8375 11.6959 18.7566 11.615C18.6879 11.5462 18.4977 11.5543 18.4249 11.6312Z" fill="currentColor"/>
        <path d="M15.698 11.6554C15.6696 11.6837 15.6494 11.7322 15.6494 11.7686C15.6494 11.9062 15.7384 11.9304 16.2036 11.9304C16.6162 11.9304 16.6606 11.9223 16.7011 11.8495C16.7335 11.7929 16.7335 11.7444 16.7011 11.6877C16.6606 11.6149 16.6162 11.6068 16.2036 11.6068C15.9002 11.6068 15.7303 11.623 15.698 11.6554Z" fill="currentColor"/>
        <path d="M18.009 12.0517C17.9362 12.08 17.916 12.1205 17.916 12.2297C17.916 12.4805 18.1668 12.5937 18.2962 12.4077C18.3812 12.2863 18.3771 12.1892 18.2801 12.0921C18.1911 12.0032 18.1466 11.9991 18.009 12.0517Z" fill="currentColor"/>
    </symbol>
</svg>