<svg width="0" height="0" class="hidden">
    <symbol id="nav-home" xmlns="http://www.w3.org/2000/svg"  viewBox="0 0 22 19" fill="none">
        <path d="M10.7483 0.04669C10.6199 0.0812826 10.1751 0.41238 9.73527 0.797838C9.66609 0.85714 8.66785 1.69724 7.51148 2.66088C6.35511 3.62453 5.35687 4.45968 5.28769 4.51899C5.08507 4.69689 3.98306 5.61606 3.31098 6.16954C2.96506 6.45616 2.15461 7.13318 1.50724 7.67677C0.864809 8.22037 0.306389 8.68983 0.271797 8.71454C0.128486 8.8282 0 9.11977 0 9.32238C0 9.62877 0.108719 9.84621 0.355807 10.0241C0.548536 10.1674 0.593012 10.1773 0.874692 10.1625C1.13661 10.1477 1.20579 10.118 1.42323 9.94998C1.64561 9.76714 4.64032 7.26661 6.1179 6.02128C6.45889 5.73466 6.88388 5.37885 7.06672 5.2306C7.48183 4.88962 10.3431 2.4978 10.3777 2.46321C10.4617 2.37426 10.9658 1.96904 10.9905 1.96904C11.0103 1.96904 11.5637 2.41874 12.221 2.97221C13.5058 4.04952 15.2849 5.53699 17.6915 7.54829C18.5217 8.24013 19.5397 9.09506 19.9548 9.44592C20.37 9.79185 20.7653 10.0982 20.8345 10.1229C20.9037 10.1526 21.0667 10.1724 21.1952 10.1724C21.8031 10.1724 22.2132 9.42616 21.8821 8.93692C21.7784 8.78373 21.4769 8.50699 20.8295 7.9634C20.6912 7.85468 19.6732 6.99975 18.5563 6.06576C17.4444 5.13671 16.1546 4.0594 15.6901 3.67394C15.2305 3.28849 14.0741 2.32484 13.1253 1.53416C11.2376 -0.0472031 11.1832 -0.0817957 10.7483 0.04669Z" fill="currentColor"/>
        <path d="M10.7185 3.39232C10.6196 3.46151 8.56879 5.16147 8.10426 5.56176C7.9906 5.66059 7.04178 6.44633 4.43747 8.61577C3.79504 9.14948 3.33546 9.56953 3.29098 9.66342C3.2218 9.79685 3.21191 10.3108 3.21191 13.9726V18.1287H3.75551H4.2991V14.1604V10.1922L4.48195 10.0192C4.58572 9.92039 5.27263 9.34221 6.00401 8.73437C6.74033 8.12653 7.34817 7.61753 7.363 7.6027C7.37782 7.58788 7.72374 7.30126 8.12897 6.96027C8.53914 6.61929 9.3397 5.94721 9.91789 5.46292C10.4911 4.98357 10.9754 4.58823 10.9952 4.58823C11.01 4.58823 11.5437 5.01816 12.1713 5.54693C14.4445 7.44457 15.2945 8.15618 15.4181 8.25996C15.4873 8.31926 16.0358 8.77884 16.6387 9.2829L17.7407 10.1971V14.1604V18.1287H18.2843H18.8279V13.9628C18.8279 10.0884 18.8229 9.79191 18.7389 9.66836C18.6945 9.59424 18.1558 9.11983 17.543 8.60588C16.9303 8.09688 15.8974 7.23207 15.2451 6.68848C14.5928 6.13994 13.5699 5.28502 12.9719 4.7859C12.3739 4.28678 11.7859 3.7926 11.6623 3.68388C11.2176 3.29349 10.9754 3.21442 10.7185 3.39232Z" fill="currentColor"/>
        <path d="M10.7728 8.7886V9.08511H10.5257C10.3182 9.08511 10.2687 9.10488 10.1996 9.20865C10.1304 9.31243 10.1254 9.36185 10.1699 9.46068L10.2292 9.58423L10.9556 9.5694L11.687 9.55458L11.7315 9.42115C11.8056 9.2136 11.6623 9.08511 11.3559 9.08511H11.1187V8.7886V8.4921H10.9458H10.7728V8.7886Z" fill="currentColor"/>
        <path d="M8.30726 9.76214C8.1936 9.78685 8.1936 9.78685 8.34185 9.8758C8.56423 10.0142 8.67295 10.2069 8.67789 10.4886C8.68778 10.706 8.7026 10.7357 8.80144 10.7406C8.98922 10.7554 9.093 10.9383 9.093 11.2644V11.556H9.38951C9.71072 11.556 9.88368 11.6598 9.88368 11.8525C9.88368 12.0452 9.71072 12.149 9.38951 12.149H9.093V12.4356C9.093 12.7569 8.97934 12.9397 8.77673 12.9397C8.59388 12.9397 8.50493 12.7964 8.4901 12.4702L8.47528 12.1737L8.2529 12.1589C7.91192 12.1391 7.81802 12.1095 7.73401 11.981C7.66977 11.8871 7.66483 11.8426 7.71425 11.7339C7.78343 11.5906 7.85756 11.5659 8.22819 11.5461L8.47528 11.5313L8.4901 11.3435C8.50987 11.131 8.47528 11.1162 8.30726 11.2743C8.23313 11.3386 7.98604 11.4671 7.74884 11.5609L7.31396 11.729V12.574V13.4141L7.45728 13.5228C8.18866 14.0615 9.12265 14.1208 9.86392 13.676C10.2938 13.419 10.6348 12.9941 10.788 12.5295C10.8078 12.4851 10.8671 12.4455 10.9313 12.4455C11.0203 12.4455 11.0746 12.5098 11.1883 12.7519C11.3662 13.1225 11.7912 13.5673 12.1371 13.7452C12.8833 14.1208 13.7877 14.0269 14.4449 13.5031L14.5784 13.3943V12.5493C14.5784 12.0699 14.5586 11.7043 14.5339 11.7043C14.5092 11.7043 14.4548 11.6894 14.4103 11.6746C14.3461 11.6499 14.3313 11.6795 14.3313 11.8179C14.3313 12.2034 13.9013 12.401 13.6493 12.1342C13.4912 11.9662 13.5011 11.645 13.6592 11.5165L13.7827 11.4226L13.6493 11.3237L13.5109 11.22L13.3676 11.3435C13.2589 11.4374 13.1947 11.4572 13.0761 11.4374C12.6115 11.3435 12.5621 10.7456 13.0118 10.627C13.1502 10.5924 13.1749 10.5578 13.2045 10.37C13.2441 10.1427 13.4269 9.90545 13.6098 9.84121C13.7086 9.81156 13.7086 9.80662 13.59 9.77203C13.4566 9.73743 8.50493 9.72755 8.30726 9.76214ZM12.5473 11.5362C12.6659 11.6351 12.7005 11.7043 12.7005 11.8476C12.7005 12.3022 12.0828 12.4208 11.9098 12.0008C11.8307 11.813 11.9147 11.5857 12.1025 11.4819C12.2903 11.383 12.3793 11.3929 12.5473 11.5362ZM13.3973 12.3912C13.4813 12.4801 13.5406 12.5888 13.5406 12.6679C13.5406 12.826 13.2984 13.0879 13.1452 13.0879C13.0019 13.0879 12.7697 12.9595 12.7301 12.8656C12.6659 12.6926 12.7005 12.49 12.824 12.3714C12.9921 12.1984 13.2095 12.2083 13.3973 12.3912Z" fill="currentColor"/>
        <path d="M13.8616 10.1082C13.4909 10.1972 13.4563 10.6913 13.8023 11.0027C13.8665 11.0669 14.1334 11.1954 14.3854 11.2942C14.6424 11.3881 14.8796 11.487 14.9142 11.5166C14.9586 11.5562 14.9735 11.823 14.9735 12.5494V13.5329L14.7165 13.7355C14.3063 14.0616 13.8912 14.2296 13.402 14.2642L12.9819 14.2988L13.3872 14.6942C13.7924 15.0846 13.9604 15.1834 14.1581 15.134C14.2717 15.1043 15.9618 13.4241 16.0557 13.2462C16.1051 13.1573 16.1101 12.8855 16.0854 12.1343C16.0359 10.7803 16.1101 10.8791 14.8005 10.38C14.0741 10.0983 13.9999 10.0786 13.8616 10.1082Z" fill="currentColor"/>
        <path d="M7.14111 10.3949C6.16264 10.7952 6.13793 10.81 6.0391 10.978C5.95509 11.1164 5.94026 11.2745 5.91061 12.1344C5.8859 12.8262 5.89084 13.1672 5.93038 13.2364C5.96003 13.2907 6.38502 13.7355 6.87425 14.2247C7.73412 15.0846 7.76871 15.1143 7.96638 15.1143C8.14923 15.1143 8.19865 15.0797 8.55445 14.7337C8.77189 14.5262 8.94485 14.3433 8.94485 14.3236C8.94485 14.3088 8.83119 14.289 8.69777 14.284C8.15417 14.2593 7.59081 14.037 7.21524 13.696L7.01757 13.5181L7.02745 12.5099L7.04227 11.4969L7.53645 11.314C8.17394 11.0719 8.40126 10.8693 8.40126 10.5431C8.40126 10.0391 8.09487 10.0045 7.14111 10.3949Z" fill="currentColor"/>
        <path d="M5.37647 13.513C5.21339 13.597 5.08984 13.8194 5.08984 14.0121C5.08984 14.1307 5.24798 14.3136 6.0189 15.0796C6.53284 15.5886 6.98748 16.0037 7.03196 16.0037C7.08137 16.0037 7.20492 15.9592 7.3087 15.9098C7.51131 15.806 7.68921 15.4897 7.63979 15.3266C7.62497 15.2772 7.20492 14.8275 6.7058 14.3333C5.73227 13.3648 5.6878 13.3401 5.37647 13.513Z" fill="currentColor"/>
        <path d="M15.2847 14.3333C14.7856 14.8325 14.3655 15.2871 14.3507 15.3415C14.3062 15.5095 14.499 15.8307 14.6966 15.9246C14.7856 15.9691 14.9042 16.0037 14.9536 16.0037C15.003 16.0037 15.4577 15.5886 15.9716 15.0796C16.7722 14.2839 16.9006 14.1307 16.9006 14.0022C16.9006 13.7107 16.6289 13.4389 16.3373 13.4339C16.2137 13.4339 16.0507 13.5723 15.2847 14.3333Z" fill="currentColor"/>
    </symbol>
    <symbol id="nav-mod" xmlns="http://www.w3.org/2000/svg"  viewBox="0 0 18 18" fill="none">
        <path d="M7.56656 0.166437C7.42363 0.309361 7.39841 0.452284 7.39841 1.02398C7.39 2.10011 7.16301 2.57092 6.51565 2.86518C5.82625 3.18465 5.31341 3.01651 4.53993 2.23463C4.1532 1.83949 4.0355 1.76382 3.78328 1.76382C3.51425 1.76382 3.39654 1.8563 2.62307 2.62977C1.85801 3.39483 1.76553 3.52094 1.76553 3.78998C1.76553 4.03379 1.8412 4.1599 2.23634 4.53823C3.01822 5.3117 3.18636 5.82454 2.86688 6.51394C2.57263 7.1613 2.10182 7.3883 1.02569 7.3967C0.00840729 7.3967 0 7.40511 0 8.99409C0 10.5831 0.00840729 10.5915 1.0341 10.5915C2.10182 10.5999 2.57263 10.8269 2.86688 11.4742C3.18636 12.1636 3.04344 12.6092 2.24475 13.4247C1.5049 14.1814 1.52172 14.2486 2.61467 15.35C3.72443 16.4598 3.80009 16.4766 4.62401 15.6863C5.43111 14.9044 6.04484 14.7783 6.73424 15.2407C7.20504 15.5602 7.33956 15.8881 7.39 16.8717C7.43204 17.6116 7.46567 17.7713 7.60019 17.8722C7.83559 18.0403 10.156 18.0403 10.3914 17.8722C10.5259 17.7713 10.5596 17.6116 10.6016 16.8717C10.652 15.8881 10.7865 15.5602 11.2574 15.2407C11.9468 14.7783 12.5605 14.9044 13.3676 15.6863C14.1915 16.4766 14.2756 16.4682 15.3685 15.35C16.4615 14.2402 16.4699 14.1898 15.646 13.3154C15.0238 12.6681 14.8977 12.3738 14.9986 11.8189C15.0743 11.4322 15.3685 11.0118 15.7132 10.8101C15.9234 10.684 16.2177 10.6335 16.8734 10.5999C17.6133 10.5578 17.773 10.5242 17.8739 10.3897C18.042 10.1543 18.042 7.83388 17.8739 7.59848C17.773 7.46396 17.6133 7.43033 16.8734 7.3883C16.2177 7.35467 15.9234 7.30422 15.7132 7.17811C15.3685 6.97634 15.0743 6.55597 14.9986 6.16924C14.8977 5.62277 15.0238 5.33692 15.6376 4.66434C16.4699 3.77316 16.4615 3.73113 15.3601 2.62977C14.2756 1.54523 14.1915 1.52842 13.4264 2.25985C12.5941 3.05014 12.1653 3.18465 11.4759 2.86518C10.8286 2.57092 10.6016 2.10011 10.5932 1.02398C10.5932 0.00669861 10.5848 -0.00170898 8.9958 -0.00170898C7.844 -0.00170898 7.71789 0.0151062 7.56656 0.166437ZM10.0467 4.91655C10.7865 5.10992 11.4507 5.50506 12.0056 6.08517C13.6114 7.74981 13.6114 10.2384 12.0056 11.903C10.383 13.6013 7.79355 13.6433 6.08688 12.0039C4.35497 10.3393 4.35497 7.64892 6.08688 5.98428C7.16301 4.95018 8.63428 4.55504 10.0467 4.91655Z" fill="currentColor"/>
        <path d="M8.28494 6.49176C7.49428 6.75251 6.95596 7.23195 6.62793 7.93849C6.35877 8.52727 6.36718 9.45251 6.62793 10.0497C6.87185 10.588 7.40176 11.1095 7.94849 11.3619C8.53727 11.631 9.46251 11.631 10.0513 11.3619C11.0102 10.9245 11.5569 10.0665 11.5569 8.98989C11.5569 7.91325 11.0018 7.0469 10.0597 6.62634C9.54662 6.40765 8.73914 6.34036 8.28494 6.49176Z" fill="currentColor"/>
    </symbol>
    <symbol id="nav-addon" xmlns="http://www.w3.org/2000/svg"  viewBox="0 0 18 18" fill="none">
        <path d="M13.53 0.178291C13.5075 0.275791 13.4925 0.418291 13.5 0.493291C13.53 0.778291 13.5 0.898291 13.35 1.04829C13.1175 1.28079 12.795 1.24329 12.4575 0.935791C12.3 0.793291 12.12 0.673291 12.06 0.673291C11.9325 0.673291 11.175 1.43079 11.175 1.56579C11.175 1.62579 11.295 1.79829 11.4375 1.95579C11.9325 2.50329 11.685 3.07329 10.995 2.99829C10.92 2.99079 10.7775 3.00579 10.68 3.02829C10.5075 3.07329 10.5 3.10329 10.5 3.74829C10.5 4.39329 10.5075 4.42329 10.68 4.46829C10.7775 4.49079 10.92 4.50579 10.995 4.49829C11.28 4.46829 11.4 4.49829 11.55 4.64829C11.7825 4.88079 11.745 5.20329 11.4375 5.54079C11.295 5.69829 11.175 5.87829 11.175 5.93829C11.175 6.06579 11.9325 6.82329 12.0675 6.82329C12.1275 6.82329 12.3 6.70329 12.4575 6.56079C13.005 6.06579 13.575 6.31329 13.5 7.00329C13.4925 7.07829 13.5075 7.22079 13.53 7.31829C13.575 7.49079 13.605 7.49829 14.25 7.49829C14.895 7.49829 14.925 7.49079 14.97 7.31829C14.9925 7.22079 15.0075 7.07829 15 7.00329C14.97 6.71829 15 6.59829 15.15 6.44829C15.3825 6.21579 15.705 6.25329 16.0425 6.56079C16.2 6.70329 16.38 6.82329 16.44 6.82329C16.5675 6.82329 17.325 6.06579 17.325 5.93079C17.325 5.87079 17.205 5.69829 17.0625 5.54079C16.5675 4.99329 16.815 4.42329 17.505 4.49829C17.58 4.50579 17.7225 4.49079 17.82 4.46829C17.9925 4.42329 18 4.39329 18 3.74829C18 3.10329 17.9925 3.07329 17.82 3.02829C17.7225 3.00579 17.58 2.99079 17.505 2.99829C17.22 3.02829 17.1 2.99829 16.95 2.84829C16.7175 2.61579 16.755 2.29329 17.0625 1.95579C17.205 1.79829 17.325 1.61829 17.325 1.55829C17.325 1.43079 16.5675 0.673291 16.4325 0.673291C16.3725 0.673291 16.2 0.793291 16.0425 0.935791C15.495 1.43079 14.925 1.18329 15 0.493291C15.0075 0.418291 14.9925 0.275791 14.97 0.178291C14.925 0.00579071 14.895 -0.00170946 14.25 -0.00170946C13.605 -0.00170946 13.575 0.00579071 13.53 0.178291ZM14.775 2.14329C15.6 2.39079 16.095 3.23829 15.9075 4.09329C15.7425 4.82079 15.3225 5.24079 14.595 5.40579C13.74 5.59329 12.8925 5.09829 12.645 4.27329C12.495 3.77829 12.495 3.71829 12.645 3.23079C12.8025 2.70579 13.14 2.34579 13.65 2.17329C14.16 1.99329 14.2725 1.99329 14.775 2.14329Z" fill="currentColor"/>
        <path d="M13.7325 2.75083C13.3725 2.93833 13.185 3.22333 13.1475 3.65083C13.0875 4.31083 13.4925 4.79083 14.1525 4.85083C14.8125 4.91083 15.2925 4.50583 15.3525 3.84583C15.39 3.42583 15.225 3.05833 14.91 2.82583C14.625 2.61583 14.055 2.57833 13.7325 2.75083Z" fill="currentColor"/>
        <path d="M4.665 3.46329C4.6275 3.51579 4.575 3.82329 4.56 4.14579C4.515 4.81329 4.3725 5.03829 3.9 5.18079C3.555 5.28579 3.285 5.15829 2.88 4.72329C2.4675 4.27329 2.3175 4.31079 1.6275 5.00079C0.9375 5.69079 0.9 5.84079 1.35 6.25329C1.785 6.65829 1.9125 6.92829 1.8075 7.27329C1.665 7.74579 1.44 7.88829 0.7725 7.93329C0.45 7.94829 0.1425 8.00079 0.0975 8.03829C0.03 8.09079 0 8.38329 0 8.99829C0 9.61329 0.03 9.90579 0.0975 9.95829C0.1425 9.99579 0.45 10.0483 0.7725 10.0633C1.44 10.1083 1.665 10.2508 1.8075 10.7233C1.9125 11.0683 1.785 11.3383 1.35 11.7433C0.9 12.1558 0.9375 12.3058 1.6275 12.9958C2.3175 13.6858 2.4675 13.7233 2.88 13.2733C3.285 12.8383 3.555 12.7108 3.9 12.8158C4.3725 12.9583 4.515 13.1833 4.56 13.8508C4.575 14.1733 4.6275 14.4808 4.665 14.5258C4.7175 14.5933 5.01 14.6233 5.625 14.6233C6.24 14.6233 6.5325 14.5933 6.585 14.5258C6.6225 14.4808 6.675 14.1733 6.69 13.8508C6.735 13.1833 6.8775 12.9583 7.35 12.8158C7.6875 12.7108 7.9125 12.8158 8.3775 13.2658C8.565 13.4533 8.76 13.5733 8.865 13.5733C9.105 13.5733 10.2 12.4783 10.2 12.2383C10.2 12.1333 10.0575 11.9158 9.825 11.6758C9.405 11.2408 9.3225 10.9933 9.4725 10.6408C9.6525 10.2058 9.8325 10.1083 10.4775 10.0633C10.8 10.0483 11.1075 9.99579 11.16 9.95829C11.2875 9.85329 11.2875 8.14329 11.16 8.03829C11.1075 8.00079 10.8 7.94829 10.4775 7.93329C9.8325 7.88829 9.6525 7.79079 9.4725 7.35579C9.3225 7.00329 9.405 6.75579 9.825 6.32079C10.0575 6.08079 10.2 5.86329 10.2 5.75829C10.2 5.51829 9.105 4.42329 8.8575 4.42329C8.76 4.42329 8.5575 4.55079 8.3775 4.73079C7.9125 5.18079 7.6875 5.28579 7.35 5.18079C6.8775 5.03829 6.735 4.81329 6.69 4.14579C6.675 3.82329 6.6225 3.51579 6.585 3.46329C6.5325 3.40329 6.24 3.37329 5.625 3.37329C5.01 3.37329 4.7175 3.40329 4.665 3.46329ZM6.735 6.69579C7.0125 6.83079 7.23 6.98079 7.2225 7.03329C7.2075 7.08579 7.245 7.11579 7.2975 7.10079C7.3425 7.09329 7.38 7.13079 7.3725 7.17579C7.3575 7.22829 7.395 7.26579 7.4475 7.25079C7.4925 7.24329 7.53 7.28079 7.5225 7.32579C7.5075 7.37829 7.5375 7.41579 7.59 7.40079C7.6425 7.39329 7.7925 7.61079 7.935 7.89579C8.16 8.34579 8.19 8.46579 8.19 8.99829C8.19 9.53079 8.16 9.65079 7.935 10.1008C7.7925 10.3858 7.6425 10.6033 7.59 10.5883C7.5375 10.5808 7.5075 10.6183 7.515 10.6633C7.53 10.7158 7.4925 10.7533 7.44 10.7383C7.395 10.7308 7.3575 10.7683 7.365 10.8133C7.38 10.8658 7.3425 10.9033 7.29 10.8883C7.245 10.8808 7.2075 10.9108 7.215 10.9633C7.23 11.0158 7.0125 11.1658 6.7275 11.3083C6.2775 11.5333 6.1575 11.5633 5.625 11.5633C5.0925 11.5633 4.9725 11.5333 4.5225 11.3083C4.2375 11.1658 4.02 11.0158 4.035 10.9633C4.0425 10.9108 4.005 10.8808 3.96 10.8883C3.9075 10.9033 3.87 10.8658 3.885 10.8133C3.8925 10.7683 3.855 10.7308 3.81 10.7383C3.7575 10.7533 3.72 10.7158 3.735 10.6633C3.7425 10.6183 3.7125 10.5808 3.66 10.5883C3.6075 10.6033 3.4575 10.3858 3.315 10.1008C3.09 9.65079 3.06 9.53079 3.06 8.99829C3.06 8.46579 3.09 8.34579 3.315 7.89579C3.4575 7.61079 3.6075 7.39329 3.66 7.40079C3.7125 7.41579 3.7425 7.37829 3.7275 7.32579C3.72 7.28079 3.7575 7.24329 3.81 7.25079C3.855 7.26579 3.8925 7.22829 3.885 7.17579C3.87 7.13079 3.9075 7.09329 3.96 7.10829C4.02 7.11579 4.0425 7.09329 4.02 7.05579C3.99 7.01829 4.095 6.91329 4.2375 6.82329C5.0325 6.33579 5.925 6.28329 6.735 6.69579Z" fill="currentColor"/>
        <path d="M4.89711 7.49819C4.72461 7.58069 4.55961 7.68569 4.53711 7.72319C4.50711 7.76819 4.45461 7.77569 4.40961 7.75319C4.36461 7.72319 4.34961 7.73819 4.37961 7.78319C4.40211 7.82819 4.39461 7.88069 4.34961 7.91069C4.18461 8.00819 3.97461 8.63069 3.97461 8.99819C3.97461 9.36569 4.18461 9.98819 4.34961 10.0857C4.39461 10.1157 4.40211 10.1682 4.37961 10.2132C4.34961 10.2582 4.36461 10.2732 4.40961 10.2432C4.45461 10.2207 4.50711 10.2282 4.53711 10.2732C4.63461 10.4382 5.25711 10.6482 5.62461 10.6482C5.99211 10.6482 6.61461 10.4382 6.71211 10.2732C6.74211 10.2282 6.79461 10.2207 6.83961 10.2432C6.88461 10.2732 6.89961 10.2582 6.86961 10.2132C6.84711 10.1682 6.85461 10.1157 6.89961 10.0857C7.06461 9.98819 7.27461 9.36569 7.27461 8.99819C7.27461 8.63069 7.06461 8.00819 6.89961 7.91069C6.85461 7.88069 6.84711 7.82819 6.86961 7.78319C6.89961 7.73819 6.88461 7.72319 6.83961 7.75319C6.79461 7.77569 6.74211 7.76819 6.71211 7.72319C6.68961 7.68569 6.51711 7.58069 6.33711 7.49819C5.90961 7.30319 5.31711 7.30319 4.89711 7.49819Z" fill="currentColor"/>
        <path d="M13.53 10.6783C13.5075 10.7758 13.4925 10.9183 13.5 10.9933C13.53 11.2783 13.5 11.3983 13.35 11.5483C13.1175 11.7808 12.795 11.7433 12.4575 11.4358C12.3 11.2933 12.12 11.1733 12.06 11.1733C11.9325 11.1733 11.175 11.9308 11.175 12.0658C11.175 12.1258 11.295 12.2983 11.4375 12.4558C11.9325 13.0033 11.685 13.5733 10.995 13.4983C10.92 13.4908 10.7775 13.5058 10.68 13.5283C10.5075 13.5733 10.5 13.6033 10.5 14.2483C10.5 14.8933 10.5075 14.9233 10.68 14.9683C10.7775 14.9908 10.92 15.0058 10.995 14.9983C11.28 14.9683 11.4 14.9983 11.55 15.1483C11.7825 15.3808 11.745 15.7033 11.4375 16.0408C11.295 16.1983 11.175 16.3783 11.175 16.4383C11.175 16.5658 11.9325 17.3233 12.0675 17.3233C12.1275 17.3233 12.3 17.2033 12.4575 17.0608C13.005 16.5658 13.575 16.8133 13.5 17.5033C13.4925 17.5783 13.5075 17.7208 13.53 17.8183C13.575 17.9908 13.605 17.9983 14.25 17.9983C14.895 17.9983 14.925 17.9908 14.97 17.8183C14.9925 17.7208 15.0075 17.5783 15 17.5033C14.97 17.2183 15 17.0983 15.15 16.9483C15.3825 16.7158 15.705 16.7533 16.0425 17.0608C16.2 17.2033 16.38 17.3233 16.44 17.3233C16.5675 17.3233 17.325 16.5658 17.325 16.4308C17.325 16.3708 17.205 16.1983 17.0625 16.0408C16.5675 15.4933 16.815 14.9233 17.505 14.9983C17.58 15.0058 17.7225 14.9908 17.82 14.9683C17.9925 14.9233 18 14.8933 18 14.2483C18 13.6033 17.9925 13.5733 17.82 13.5283C17.7225 13.5058 17.58 13.4908 17.505 13.4983C17.22 13.5283 17.1 13.4983 16.95 13.3483C16.7175 13.1158 16.755 12.7933 17.0625 12.4558C17.205 12.2983 17.325 12.1183 17.325 12.0583C17.325 11.9308 16.5675 11.1733 16.4325 11.1733C16.3725 11.1733 16.2 11.2933 16.0425 11.4358C15.495 11.9308 14.925 11.6833 15 10.9933C15.0075 10.9183 14.9925 10.7758 14.97 10.6783C14.925 10.5058 14.895 10.4983 14.25 10.4983C13.605 10.4983 13.575 10.5058 13.53 10.6783ZM14.775 12.6433C15.6 12.8908 16.095 13.7383 15.9075 14.5933C15.7425 15.3208 15.3225 15.7408 14.595 15.9058C13.74 16.0933 12.8925 15.5983 12.645 14.7733C12.495 14.2783 12.495 14.2183 12.645 13.7308C12.8025 13.2058 13.14 12.8458 13.65 12.6733C14.16 12.4933 14.2725 12.4933 14.775 12.6433Z" fill="currentColor"/>
        <path d="M13.7325 13.2508C13.3725 13.4383 13.185 13.7233 13.1475 14.1508C13.0875 14.8108 13.4925 15.2908 14.1525 15.3508C14.8125 15.4108 15.2925 15.0058 15.3525 14.3458C15.39 13.9258 15.225 13.5583 14.91 13.3258C14.625 13.1158 14.055 13.0783 13.7325 13.2508Z" fill="currentColor"/>
    </symbol>
    <symbol id="nav-game-engine" xmlns="http://www.w3.org/2000/svg"  viewBox="0 0 26 26" fill="none">
        <path d="M2.67884 5.32802C1.21613 6.62966 0.0130949 7.7045 0.00980796 7.71765C-0.00333996 7.74723 3.05026 11.1887 3.09957 11.2018C3.12258 11.2051 3.28693 11.0638 3.46442 10.883L3.78983 10.5576L3.36581 10.1073C3.13244 9.86076 2.94179 9.64711 2.94179 9.63396C2.94179 9.61752 3.82928 8.82865 4.91398 7.87543L6.88617 6.14319L7.37593 6.63952L7.86898 7.13257L8.17466 6.83017C8.3423 6.66253 8.48035 6.5179 8.48035 6.50804C8.48035 6.48503 5.39388 2.97454 5.3643 2.96797C5.35115 2.96139 4.14483 4.02637 2.67884 5.32802ZM4.31575 5.51209C4.58857 5.64028 4.77921 5.83092 4.90741 6.10703C4.99944 6.30096 5.01259 6.36013 5.01259 6.60665C5.01259 6.85318 4.99944 6.91234 4.90741 7.10627C4.77593 7.38238 4.58857 7.56974 4.31246 7.70122C4.11853 7.79325 4.05937 7.8064 3.81284 7.8064C3.56632 7.8064 3.50715 7.79325 3.31322 7.70122C3.03712 7.56974 2.84976 7.38238 2.71828 7.10627C2.62624 6.91234 2.6131 6.85318 2.6131 6.60665C2.6131 6.36342 2.62624 6.30096 2.71499 6.1136C3.01411 5.48908 3.70437 5.22941 4.31575 5.51209Z" fill="currentColor"/>
        <path d="M3.55327 5.69305C3.23443 5.7818 2.95503 6.09078 2.88272 6.42605C2.76439 6.99141 3.23114 7.56006 3.81622 7.56006C4.06275 7.56006 4.27311 7.46474 4.47362 7.26752C4.75301 6.98812 4.82533 6.68901 4.71357 6.31101C4.64126 6.06448 4.35529 5.77852 4.10876 5.7062C3.91155 5.64704 3.7209 5.64375 3.55327 5.69305ZM4.02659 5.95273C4.27969 6.02504 4.5032 6.33073 4.5032 6.60683C4.5032 6.9684 4.1745 7.2971 3.81294 7.2971C3.45137 7.2971 3.12267 6.9684 3.12267 6.60683C3.12267 6.24855 3.44479 5.92314 3.7965 5.91657C3.85238 5.91657 3.95428 5.933 4.02659 5.95273Z" fill="currentColor"/>
        <path d="M19.0812 4.71664C18.2331 5.68301 17.533 6.48503 17.5264 6.50147C17.5231 6.51462 17.6579 6.66253 17.8255 6.83017L18.1312 7.13257L18.6243 6.63952L19.114 6.14319L21.0862 7.87543C22.1709 8.82865 23.0584 9.61752 23.0584 9.63396C23.0584 9.64711 22.8678 9.86076 22.6344 10.1073L22.2104 10.5576L22.5358 10.883C22.7133 11.0638 22.8776 11.2051 22.9006 11.2018C22.9499 11.1887 26.0035 7.74723 25.9904 7.71765C25.9805 7.68807 20.6655 2.96139 20.6425 2.95811C20.6326 2.95811 19.9292 3.75027 19.0812 4.71664ZM22.6837 5.51209C22.9499 5.63699 23.157 5.84079 23.2852 6.1136C23.374 6.30096 23.3871 6.36342 23.3871 6.60665C23.3871 6.85318 23.374 6.91234 23.2819 7.10627C23.1504 7.38238 22.9631 7.56974 22.687 7.70122C22.4931 7.79325 22.4339 7.8064 22.1874 7.8064C21.9408 7.8064 21.8817 7.79325 21.6877 7.70122C21.4116 7.56974 21.2243 7.38238 21.0928 7.10627C21.0008 6.91234 20.9876 6.85318 20.9876 6.60665C20.9876 6.36013 21.0008 6.30096 21.0928 6.10703C21.3853 5.48908 22.0789 5.22612 22.6837 5.51209Z" fill="currentColor"/>
        <path d="M21.8782 5.70619C21.6449 5.78179 21.3556 6.07433 21.2866 6.31099C21.1748 6.69228 21.2471 6.98811 21.5265 7.2675C21.6777 7.4187 21.7566 7.46801 21.9078 7.51074C22.368 7.6455 22.8348 7.43843 23.0484 7.00454C23.1569 6.7876 23.1536 6.41946 23.0451 6.20252C22.8216 5.76864 22.3319 5.56156 21.8782 5.70619ZM22.4009 5.95271C22.5718 6.00202 22.792 6.22224 22.8413 6.39317C22.9169 6.66927 22.8611 6.89607 22.6671 7.08672C22.5356 7.22148 22.3614 7.29709 22.1872 7.29709C22.013 7.29709 21.8388 7.22148 21.7073 7.08672C21.4378 6.81719 21.4279 6.41946 21.6876 6.14007C21.875 5.94285 22.1215 5.87711 22.4009 5.95271Z" fill="currentColor"/>
        <path d="M5.30829 8.25363C4.96644 8.54617 4.68048 8.78941 4.6739 8.79269C4.66733 8.79927 5.09135 9.37777 5.61727 10.0746C6.14318 10.7747 6.57378 11.3664 6.57378 11.3894C6.57378 11.4124 6.53105 11.5373 6.47517 11.6655C6.40614 11.8331 6.38971 11.9055 6.41929 11.9153C6.4423 11.9219 6.96821 12.0698 7.58945 12.244L8.72346 12.5596L9.04559 12.2374C9.2691 12.0139 9.36114 11.8989 9.34799 11.866C9.31183 11.7871 8.81878 9.95628 8.79577 9.81823C8.76948 9.67689 8.76291 9.6736 8.40791 9.75906L8.15481 9.81823L7.07668 8.77297C6.48503 8.19775 5.98541 7.72442 5.96569 7.72442C5.94925 7.72442 5.65342 7.96437 5.30829 8.25363Z" fill="currentColor"/>
        <path d="M18.9229 8.77297L17.8448 9.81823L17.5917 9.75906C17.2367 9.6736 17.2301 9.67689 17.2038 9.81823C17.1808 9.95628 16.6878 11.7871 16.6516 11.866C16.6385 11.8989 16.7305 12.0139 16.954 12.2374L17.2761 12.5596L18.4102 12.244C19.0314 12.0698 19.5573 11.9219 19.5803 11.9153C19.6099 11.9055 19.5935 11.8331 19.5244 11.6655C19.4686 11.5373 19.4258 11.4124 19.4258 11.3894C19.4258 11.3664 19.8564 10.7747 20.3823 10.0746C20.9083 9.37777 21.3323 8.79927 21.3257 8.79269C21.1449 8.62506 20.0569 7.72442 20.0339 7.72442C20.0175 7.72442 19.5146 8.19775 18.9229 8.77297Z" fill="currentColor"/>
        <path d="M10.7882 9.55188C10.6403 9.59461 10.2951 9.72937 10.0256 9.8477C9.61143 10.0318 9.52925 10.0811 9.50953 10.1501C9.48324 10.2652 9.59828 10.8239 9.79221 11.5043C9.88096 11.8199 9.95327 12.0796 9.94999 12.0828C9.80865 12.1354 9.26301 12.6581 8.95732 13.0262L8.82584 13.184L8.3821 13.0361C7.91863 12.8816 7.20207 12.7205 6.97856 12.7205C6.83064 12.7205 6.85694 12.6778 6.61699 13.2596C6.3869 13.8151 6.17982 14.3706 6.17982 14.4298C6.17982 14.4593 6.49537 14.6566 7.01143 14.9491L7.83975 15.4191V16.231V17.0429L7.018 17.5195C6.56769 17.7792 6.1864 18.006 6.17653 18.0224C6.15024 18.0586 6.82078 19.7645 6.8668 19.781C6.88652 19.7875 7.34013 19.6856 7.8759 19.5542L8.84885 19.3175L8.93431 19.4292C9.03949 19.5706 9.52597 20.0538 9.75934 20.2576L9.94013 20.4088L9.69689 21.3324C9.47009 22.2035 9.46023 22.2593 9.50296 22.3579C9.54897 22.4467 9.62129 22.4861 10.2721 22.7491C10.6698 22.9069 11.0281 23.0384 11.0676 23.0416C11.2385 23.0449 11.2911 22.9792 11.7282 22.1936L12.1621 21.4146H13.0003L13.8385 21.4113L14.2724 22.1936C14.7095 22.9792 14.7621 23.0449 14.933 23.0416C14.9725 23.0384 15.3308 22.9069 15.7285 22.7491C16.3793 22.4861 16.4516 22.4467 16.4976 22.3579C16.5404 22.2593 16.5305 22.2035 16.3037 21.3324L16.0605 20.4088L16.2413 20.2576C16.4746 20.0538 16.9611 19.5706 17.0663 19.4292L17.1518 19.3175L18.1247 19.5542C18.6605 19.6856 19.1141 19.7875 19.1338 19.781C19.1798 19.7645 19.8504 18.0586 19.8241 18.0224C19.8142 18.006 19.4329 17.7792 18.9826 17.5195L18.1609 17.0429V16.231V15.4191L18.9892 14.9491C19.5052 14.6566 19.8208 14.4593 19.8208 14.4298C19.8208 14.3706 19.6137 13.8151 19.3836 13.2596C19.1437 12.6778 19.17 12.7205 19.022 12.7205C18.7985 12.7205 18.082 12.8816 17.6185 13.0361L17.1748 13.184L17.0433 13.0262C16.7376 12.6581 16.192 12.1354 16.0506 12.0828C16.0473 12.0796 16.1196 11.8199 16.2084 11.5043C16.4023 10.8239 16.5174 10.2652 16.4911 10.1501C16.4714 10.0811 16.3892 10.0318 15.9783 9.85099C15.482 9.63076 14.9889 9.46642 14.8279 9.46642C14.749 9.46642 14.6997 9.5453 14.2724 10.2816L13.8023 11.0935H13.0003H12.1983L11.7282 10.2816C11.1892 9.34808 11.2681 9.40725 10.7882 9.55188ZM13.5394 12.7698C15.4524 13.0821 16.7606 14.8866 16.4516 16.7931C16.2084 18.2887 15.0349 19.4621 13.5394 19.7054C11.8762 19.9749 10.2425 18.9789 9.68703 17.3519C8.84227 14.8932 10.9788 12.3557 13.5394 12.7698Z" fill="currentColor"/>
        <path d="M12.5598 14.1832C12.4448 14.2095 12.2213 14.2917 12.0668 14.3706C11.5212 14.6401 11.0906 15.1956 10.9624 15.7971C10.6501 17.2697 11.9649 18.6009 13.4243 18.2919C14.5452 18.0553 15.2749 16.9212 15.0382 15.7971C14.8016 14.6828 13.6676 13.9432 12.5598 14.1832Z" fill="currentColor"/>
    </ы>
    <symbol id="nav-remakes" xmlns="http://www.w3.org/2000/svg" viewBox="0 0 18 18" fill="none">
        <path d="M13.5757 0.0604324C13.001 0.187565 12.4315 0.513023 11.9636 0.975786C11.6178 1.3165 11.5111 1.46906 11.3178 1.86571C10.9669 2.59291 10.8601 3.24892 10.9873 3.96086L11.0585 4.35243L7.70216 7.70364L4.34078 11.0498L4.01023 10.9887C3.25761 10.8514 2.59143 10.9481 1.8744 11.304C0.953964 11.7617 0.282705 12.6211 0.0640367 13.6331C-0.0986929 14.401 0.0640367 15.5553 0.379325 15.8554C0.475946 15.9469 0.567482 15.9774 0.735297 15.9774C0.95905 15.9774 0.964135 15.9723 1.8744 15.0621L2.78467 14.1518L2.95249 14.2993C3.04402 14.3806 3.28812 14.6095 3.49153 14.8078L3.85767 15.1638L2.97283 16.0537C2.48464 16.5419 2.05747 17.0097 2.02696 17.0911C1.82355 17.6352 2.44904 17.9607 3.67969 17.9607C4.37129 17.9607 4.7476 17.8641 5.32732 17.5437C5.75449 17.3047 6.32913 16.7555 6.56814 16.3537C6.96988 15.6723 7.13261 14.8078 7.01056 14.0196L6.94445 13.6026L10.2906 10.2565L13.6367 6.91033L13.8198 6.96627C13.9215 6.99678 14.2775 7.02221 14.6131 7.02221C15.1369 7.02221 15.2843 7.00187 15.6352 6.88491C17.3439 6.32044 18.3406 4.49481 17.8931 2.75564C17.7711 2.27254 17.6846 2.13523 17.4507 2.03861C17.1507 1.91148 17.0286 1.99285 16.0878 2.93363C15.6149 3.40656 15.2081 3.79813 15.1877 3.79813C15.1674 3.79813 14.9182 3.57438 14.6385 3.30485L14.1249 2.81158L15.0555 1.88097C15.981 0.955444 15.9861 0.950359 15.9861 0.726606C15.9861 0.416403 15.8386 0.274014 15.381 0.131626C14.9182 -0.0107632 14.0486 -0.04636 13.5757 0.0604324ZM13.8096 1.60128C13.0977 2.32848 12.9756 2.59291 13.1231 3.10653C13.2095 3.39639 14.3995 4.62195 14.7656 4.79485C15.3149 5.0542 15.5691 4.95758 16.3268 4.21512C16.8862 3.66591 16.9269 3.64048 16.9269 3.77779C16.9218 4.24055 16.6675 4.80502 16.2811 5.22201C15.6657 5.88819 14.608 6.15262 13.7689 5.85259C13.3011 5.68478 13.5503 5.47119 9.51761 9.50384C6.65459 12.3669 5.83585 13.2161 5.81043 13.3331C5.79517 13.4195 5.83077 13.6636 5.88671 13.8925C6.06469 14.5637 6.00367 15.0977 5.67821 15.7079C5.32732 16.3639 4.47299 16.9131 3.78648 16.9182C3.64917 16.9182 3.6746 16.8775 4.22381 16.3181C4.81371 15.713 4.92559 15.5401 4.92559 15.1943C4.92559 14.8434 4.80862 14.6603 4.13736 13.9789C3.44576 13.267 3.24235 13.1246 2.87621 13.0737C2.51515 13.0229 2.24055 13.1805 1.60997 13.8009C1.09127 14.3145 1.06076 14.3349 1.06076 14.1925C1.06076 13.9535 1.18789 13.5467 1.36587 13.211C1.68625 12.616 2.34225 12.1584 3.06436 12.0312C3.43559 11.9702 3.69494 11.9855 4.21364 12.1228C4.39671 12.1685 4.60521 12.1889 4.67132 12.1736C4.7476 12.1533 6.3037 10.6379 8.50055 8.44101C12.0298 4.90672 12.1976 4.72874 12.1976 4.55584C12.1976 4.45413 12.162 4.27615 12.1264 4.15918C11.7755 3.17264 12.2637 1.87589 13.1689 1.38261C13.4994 1.20462 13.9469 1.05715 14.1757 1.05715L14.3537 1.05206L13.8096 1.60128Z" fill="currentColor"/>
        <path d="M7.89544 0.970818C7.4276 1.18948 7.11231 1.60139 7.03094 2.10484C7.00043 2.293 6.98009 2.31842 6.78685 2.37436C6.67497 2.40996 6.38002 2.52692 6.14101 2.63371L5.70368 2.83204L5.33754 2.64388C4.85952 2.3947 4.45269 2.38453 3.98485 2.59303C3.63396 2.75576 2.82031 3.54398 2.64233 3.88978C2.38298 4.39323 2.4084 5.01363 2.70335 5.45605L2.85591 5.68489L2.67284 6.07646C2.57622 6.29004 2.44909 6.59008 2.39823 6.73246C2.32704 6.95113 2.28636 7.00198 2.19482 7.00198C1.97615 7.00198 1.52356 7.21048 1.32015 7.40881C0.913324 7.80546 0.882812 7.91734 0.882812 8.98525C0.882812 9.86501 0.887898 9.94129 0.994689 10.1294C1.2337 10.5566 1.21336 10.5464 1.62527 10.3634C2.01175 10.1905 2.71352 10.0023 2.98304 10.0023C3.06949 10.0023 3.14577 9.97689 3.14577 9.95146C3.14577 9.92095 2.95253 9.90061 2.66267 9.90061C2.21516 9.90061 2.16431 9.89044 2.05243 9.77347C1.93038 9.65651 1.9253 9.626 1.9253 8.99542C1.9253 8.35468 1.93038 8.33433 2.05752 8.2072C2.17956 8.08515 2.23042 8.0699 2.67792 8.05973L3.16103 8.04447L3.23222 7.73935C3.38478 7.04775 3.65939 6.39175 4.04587 5.7866L4.22386 5.51199L3.89331 5.17636C3.51191 4.78479 3.46615 4.678 3.57802 4.43899C3.67973 4.22541 4.30522 3.61517 4.49338 3.54398C4.70187 3.46262 4.81375 3.51855 5.18498 3.8847L5.52569 4.21524L5.81047 4.03217C6.41562 3.64569 7.05128 3.38125 7.74797 3.22361L8.05309 3.15241L8.06834 2.66931C8.07851 2.22689 8.09377 2.17095 8.20565 2.05399C8.35821 1.90143 8.52602 1.86583 9.05489 1.86583C9.49223 1.86583 9.76683 1.95228 9.85328 2.10992C9.8838 2.17095 9.90922 2.42013 9.90922 2.67439C9.90922 2.949 9.92956 3.13716 9.96008 3.13716C9.99059 3.13716 10.0109 3.05071 10.0109 2.94391C10.0109 2.66422 10.1889 1.99805 10.3669 1.61665C10.5144 1.30136 10.5195 1.28611 10.433 1.18948C10.3822 1.13863 10.2499 1.04201 10.1381 0.980988C9.95499 0.884367 9.83803 0.874196 9.04472 0.85894C8.19548 0.843684 8.14462 0.84877 7.89544 0.970818Z" fill="currentColor"/>
        <path d="M16.2504 7.663C16.0012 7.7698 15.6351 7.88167 15.4367 7.91218C14.8062 8.02406 14.796 8.03932 15.3249 8.06983C15.6046 8.08508 15.8639 8.1156 15.9046 8.14102C16.0368 8.22747 16.1131 8.52242 16.1131 8.97501C16.1131 9.78358 16.0114 9.90054 15.3045 9.90054H14.8418L14.8113 10.0378C14.6384 10.8261 14.2875 11.6956 13.9264 12.2143L13.7637 12.4534L14.0942 12.7941C14.4655 13.1653 14.5316 13.3229 14.4197 13.5416C14.3078 13.7501 13.6721 14.3603 13.4992 14.4265C13.2857 14.5078 13.1738 14.4519 12.8026 14.0857L12.4618 13.7552L12.2228 13.9179C11.8313 14.1874 10.9769 14.5638 10.4938 14.6858C10.2447 14.7468 10.0056 14.8028 9.97513 14.8129C9.92936 14.8231 9.90902 14.9655 9.90902 15.291C9.90902 16.0029 9.79206 16.1046 8.9835 16.1046C8.49531 16.1046 8.22579 16.0283 8.13425 15.8605C8.10374 15.7995 8.07831 15.5401 8.07323 15.2808C8.06814 14.7672 8.0478 14.7926 7.90541 15.5096C7.86473 15.7334 7.74777 16.0944 7.65115 16.3233C7.44774 16.781 7.44265 16.7555 7.84947 16.9844C8.03255 17.0861 8.13934 17.0962 8.93773 17.1115L9.81749 17.1318L10.1429 16.9691C10.3413 16.8725 10.5243 16.7352 10.626 16.608C10.7989 16.3894 10.9769 15.9724 10.9769 15.7842C10.9769 15.6876 11.0227 15.652 11.2566 15.5757C11.4092 15.53 11.7041 15.413 11.9126 15.3164L12.294 15.1435L12.6551 15.3316C12.9755 15.4944 13.0619 15.5147 13.3823 15.5147C13.662 15.5147 13.8044 15.4893 13.9925 15.3977C14.2926 15.2503 15.0299 14.5638 15.2638 14.2078C15.6096 13.6891 15.6249 13.0789 15.2994 12.5551L15.1469 12.3008L15.3198 11.9143C15.4215 11.7007 15.5385 11.4007 15.5842 11.2481C15.6605 11.0142 15.6961 10.9685 15.7876 10.9685C15.9809 10.9685 16.4284 10.7803 16.6318 10.6125C16.7386 10.5209 16.8911 10.3124 16.9878 10.1141L17.1556 9.77341V8.98518C17.1505 8.27833 17.1403 8.17154 17.0335 7.93253C16.9725 7.79014 16.8708 7.62741 16.8098 7.57656C16.6979 7.47993 16.6928 7.47993 16.2504 7.663Z" fill="currentColor"/>
    </symbol>
    <symbol id="nav-catalog" xmlns="http://www.w3.org/2000/svg" viewBox="0 0 24 18" fill="none">
        <path d="M1.38712 0.0546722C1.31026 0.111301 1.31026 0.204335 1.29813 4.0996L1.29004 8.08789H1.67431H2.05857V5.80251V3.51713H11.5237H20.9888V4.69016V5.86318H21.3731H21.7574L21.7493 4.3342L21.7371 2.80927L16.5313 2.79713C12.636 2.79309 11.3214 2.77691 11.3214 2.7405C11.3214 2.71623 11.1313 2.35623 10.9008 1.94365C10.6702 1.53107 10.3507 0.952646 10.1889 0.665456C10.0271 0.374222 9.86932 0.107256 9.83292 0.0668077C9.77629 0.00208855 9.5255 -0.00195599 5.61811 -0.00195599C2.09902 -0.00195599 1.45588 0.00613308 1.38712 0.0546722Z" fill="currentColor"/>
        <path d="M13.7492 6.48595C13.5146 6.54662 13.2962 6.68011 13.1586 6.84595C13.098 6.91876 12.8917 7.14932 12.6975 7.35965C12.5034 7.56999 12.2121 7.89358 12.0503 8.07561C11.8764 8.26976 11.6742 8.44774 11.5488 8.52055L11.3425 8.63381L5.96272 8.65403L0.582972 8.67425L0.41713 8.76324C0.0894914 8.93717 -0.0439911 9.20009 0.0126378 9.55605C0.053087 9.7947 0.287693 11.3399 0.760949 14.4787C0.987464 15.9592 1.18971 17.2535 1.21398 17.3547C1.27061 17.5974 1.47286 17.8077 1.76004 17.9169C1.98252 17.9978 2.01083 17.9978 11.5245 17.9978C21.0341 17.9978 21.0665 17.9978 21.2889 17.9169C21.5195 17.8279 21.7379 17.6418 21.8067 17.472C21.8431 17.3789 22.0737 15.8985 22.3083 14.2765C22.3649 13.8882 22.4336 13.4311 22.466 13.2652C22.4984 13.0994 22.6399 12.1691 22.7856 11.2023C22.9312 10.2356 23.1253 8.94526 23.2143 8.33853C23.3276 7.59426 23.3721 7.18168 23.3559 7.07246C23.3195 6.86617 23.1294 6.6437 22.8907 6.53449C22.7087 6.44955 22.6723 6.44955 18.32 6.44146C14.9384 6.43741 13.8908 6.4455 13.7492 6.48595ZM18.9955 10.6441C19.0885 10.7048 19.2139 10.8181 19.2746 10.899C19.4 11.0648 19.4283 11.1578 19.942 13.2046C20.2696 14.4909 20.3101 14.6931 20.2939 14.9439C20.2777 15.312 20.128 15.5425 19.8085 15.7043C19.5577 15.8297 19.1532 15.854 18.9227 15.7569C18.7406 15.6801 18.5465 15.4819 18.4454 15.2715C18.324 15.0248 18.3361 14.9439 18.502 14.8428C18.5829 14.7942 18.7002 14.6607 18.7649 14.5475C19.1128 13.9367 18.8377 13.2207 18.1905 13.0428C17.9681 12.9861 17.8912 12.9821 17.7132 13.0185C17.3613 13.0954 17.0944 13.3057 16.9851 13.5888C16.8881 13.8396 16.9123 13.8356 16.1802 13.8234L15.5087 13.8113L15.4076 13.601C15.2782 13.334 15.2094 13.2612 14.9586 13.1237C14.3681 12.8041 13.5793 13.1763 13.4822 13.8234C13.4216 14.2279 13.5389 14.5353 13.8625 14.8266L14.0485 14.9965L13.9757 15.1866C13.8139 15.6073 13.5146 15.8135 13.0616 15.8135C12.4265 15.8135 12.0948 15.4819 12.0908 14.8468C12.0908 14.6041 12.1595 14.2805 12.4791 13.0266C13.013 10.9273 12.9847 11.0001 13.2314 10.7736C13.5186 10.5026 13.3407 10.5147 16.2206 10.5268L18.8296 10.5349L18.9955 10.6441ZM14.7928 13.423C14.8737 13.4675 14.9748 13.5363 15.0112 13.5848C15.0921 13.6819 15.1568 13.9043 15.1447 14.0378C15.1407 14.0904 15.1326 14.1673 15.1285 14.2037C15.1245 14.2967 14.898 14.5475 14.7564 14.6243C14.4773 14.7659 14.0364 14.6284 13.9029 14.3574C13.822 14.1996 13.8099 13.9043 13.8705 13.7264C13.8948 13.6616 13.9919 13.5484 14.0849 13.4796C14.2912 13.3219 14.5541 13.3016 14.7928 13.423ZM18.1905 13.4028C18.5788 13.605 18.6921 14.1511 18.409 14.4504C18.2552 14.6122 18.1096 14.681 17.9155 14.681C17.6849 14.681 17.4988 14.592 17.3654 14.418C17.2683 14.2886 17.2481 14.2279 17.2481 14.0095C17.2481 13.7264 17.3168 13.5969 17.5514 13.4351C17.7092 13.33 18.0206 13.3138 18.1905 13.4028Z" fill="currentColor"/>
        <path d="M17.9803 11.1336C17.8953 11.1983 17.8832 11.3763 17.956 11.4653C18.0288 11.5543 18.2675 11.5422 18.3201 11.4491C18.3807 11.3318 18.3686 11.2509 18.2796 11.1619C18.1866 11.0689 18.0814 11.0568 17.9803 11.1336Z" fill="currentColor"/>
        <path d="M13.8499 11.2508C13.8418 11.3034 13.8257 11.3965 13.8216 11.4652C13.8095 11.5663 13.7893 11.5866 13.6881 11.5987C13.4212 11.623 13.3848 11.6432 13.3848 11.7686C13.3848 11.9021 13.4778 11.9708 13.6598 11.9708C13.7893 11.9708 13.8297 12.0275 13.8297 12.2095C13.8297 12.3268 13.8944 12.4158 13.9753 12.4158C14.0724 12.4158 14.1533 12.2863 14.1533 12.1286C14.1533 11.9789 14.1614 11.9708 14.2706 11.9708C14.4769 11.9708 14.5982 11.9021 14.5982 11.7929C14.5982 11.6715 14.4971 11.6068 14.2989 11.6068C14.1573 11.6068 14.1533 11.6027 14.1533 11.4612C14.1533 11.267 14.0886 11.1618 13.9713 11.1618C13.9025 11.1618 13.8661 11.1902 13.8499 11.2508Z" fill="currentColor"/>
        <path d="M17.4702 11.6434C17.3771 11.8214 17.4702 12.0115 17.6522 12.0115C17.7816 12.0115 17.8706 11.9144 17.8747 11.7647C17.8747 11.6272 17.8059 11.5665 17.6441 11.5665C17.5551 11.5665 17.4985 11.5908 17.4702 11.6434Z" fill="currentColor"/>
        <path d="M18.4249 11.6312C18.344 11.7121 18.344 11.8051 18.4249 11.9224C18.4897 12.0195 18.6029 12.0357 18.7283 11.9709C18.8173 11.9224 18.8375 11.6959 18.7566 11.615C18.6879 11.5462 18.4977 11.5543 18.4249 11.6312Z" fill="currentColor"/>
        <path d="M15.698 11.6554C15.6696 11.6837 15.6494 11.7322 15.6494 11.7686C15.6494 11.9062 15.7384 11.9304 16.2036 11.9304C16.6162 11.9304 16.6606 11.9223 16.7011 11.8495C16.7335 11.7929 16.7335 11.7444 16.7011 11.6877C16.6606 11.6149 16.6162 11.6068 16.2036 11.6068C15.9002 11.6068 15.7303 11.623 15.698 11.6554Z" fill="currentColor"/>
        <path d="M18.009 12.0517C17.9362 12.08 17.916 12.1205 17.916 12.2297C17.916 12.4805 18.1668 12.5937 18.2962 12.4077C18.3812 12.2863 18.3771 12.1892 18.2801 12.0921C18.1911 12.0032 18.1466 11.9991 18.009 12.0517Z" fill="currentColor"/>
    </symbol>
</svg>